# Blender v2.83.4 OBJ File: ''
# www.blender.org
mtllib backpack_top.mtl
o top
v 0.312500 0.250000 0.125000
v 0.312500 0.062500 0.125000
v 0.312500 0.250000 -0.187500
v 0.312500 0.062500 -0.187500
v -0.312500 0.250000 -0.187500
v -0.312500 0.062500 -0.187500
v -0.312500 0.250000 0.125000
v -0.312500 0.062500 0.125000
vt 0.468750 0.843750
vt 0.468750 0.750000
vt 0.625000 0.843750
vt 0.625000 0.750000
vt 0.000000 0.843750
vt 0.000000 0.750000
vt 0.156250 0.843750
vt 0.156250 0.750000
vt 0.156250 1.000000
vt 0.468750 1.000000
vt 0.468750 1.000000
vt 0.468750 0.843750
vt 0.781250 1.000000
vt 0.781250 0.843750
vt 0.937500 0.843750
vt 0.937500 0.750000
vn 1.0000 0.0000 0.0000
vn -1.0000 0.0000 0.0000
vn 0.0000 1.0000 0.0000
vn 0.0000 -1.0000 -0.0000
vn 0.0000 -0.0000 1.0000
vn 0.0000 0.0000 -1.0000
usemtl m_all
s 1
f 1/1/1 2/2/1 3/3/1
f 2/2/1 4/4/1 3/3/1
f 5/5/2 6/6/2 7/7/2
f 6/6/2 8/8/2 7/7/2
f 5/9/3 7/7/3 3/10/3
f 7/7/3 1/1/3 3/10/3
f 8/11/4 6/12/4 2/13/4
f 6/12/4 4/14/4 2/13/4
f 7/7/5 8/8/5 1/1/5
f 8/8/5 2/2/5 1/1/5
f 3/3/6 4/4/6 5/15/6
f 4/4/6 6/16/6 5/15/6
