# Blender v2.91.0 OBJ File: ''
# www.blender.org
mtllib cursor.mtl
o Cursor
v -4.054794 0.500000 4.808219
v -5.054794 0.500000 3.808219
v -5.054794 0.500000 4.808219
v -4.054794 0.500000 3.808219
v -5.054794 0.500000 5.808219
v -6.054794 0.500000 -11.191781
v -6.054794 0.500000 5.808219
v -5.054794 0.500000 -10.191781
v -5.054794 0.500000 -9.191781
v -4.054794 0.500000 -10.191781
v -4.054794 0.500000 -9.191781
v -5.054794 0.500000 -11.191781
v -5.054794 -0.500000 -11.191781
v -6.054794 -0.500000 -11.191781
v 3.945206 0.500000 9.808219
v 1.945206 -0.500000 9.808219
v 3.945206 -0.500000 9.808219
v 1.945206 0.500000 9.808219
v -6.054794 -0.500000 5.808219
v 5.945206 -0.500000 -0.191781
v 5.945206 0.500000 0.808219
v 5.945206 -0.500000 0.808219
v 5.945206 0.500000 -0.191781
v -3.054794 0.500000 -8.191781
v -4.054794 0.500000 -8.191781
v -3.054794 0.500000 -9.191781
v -2.054794 0.500000 -7.191781
v -3.054794 0.500000 -7.191781
v -2.054794 0.500000 -8.191781
v -1.054794 0.500000 -6.191781
v -2.054794 0.500000 -6.191781
v -1.054794 0.500000 -7.191781
v -0.054794 0.500000 -5.191781
v -1.054794 0.500000 -5.191781
v -0.054794 0.500000 -6.191781
v 0.945206 0.500000 -4.191781
v -0.054794 0.500000 -4.191781
v 0.945206 0.500000 -5.191781
v 1.945206 0.500000 -3.191781
v 0.945206 0.500000 -3.191781
v 1.945206 0.500000 -4.191781
v 2.945206 0.500000 -2.191781
v 1.945206 0.500000 -2.191781
v 2.945206 0.500000 -3.191781
v 3.945206 0.500000 -1.191781
v 2.945206 0.500000 -1.191781
v 3.945206 0.500000 -2.191781
v 1.945206 0.500000 2.808219
v 0.945206 0.500000 -0.191781
v 0.945206 0.500000 2.808219
v 1.945206 0.500000 0.808219
v 3.945206 0.500000 -0.191781
v 4.945206 0.500000 -0.191781
v 4.945206 0.500000 -1.191781
v 2.945206 0.500000 4.808219
v 1.945206 0.500000 4.808219
v 2.945206 0.500000 2.808219
v 3.945206 0.500000 6.808219
v 2.945206 0.500000 6.808219
v 3.945206 0.500000 4.808219
v 3.945206 0.500000 8.808219
v 4.945206 0.500000 6.808219
v 4.945206 0.500000 8.808219
v 1.945206 0.500000 8.808219
v 0.945206 0.500000 6.808219
v 0.945206 0.500000 8.808219
v 1.945206 0.500000 6.808219
v -0.054794 0.500000 4.808219
v -0.054794 0.500000 6.808219
v 0.945206 0.500000 4.808219
v -1.054794 0.500000 2.808219
v -1.054794 0.500000 4.808219
v -0.054794 0.500000 2.808219
v -3.054794 0.500000 1.808219
v -3.054794 0.500000 2.808219
v -2.054794 0.500000 1.808219
v -2.054794 0.500000 0.808219
v -1.054794 0.500000 0.808219
v -3.054794 0.500000 3.808219
v -4.054794 0.500000 2.808219
v -5.054794 -0.500000 5.808219
v -5.054794 -0.500000 4.808219
v -4.054794 -0.500000 4.808219
v -4.054794 -0.500000 3.808219
v -3.054794 -0.500000 3.808219
v -3.054794 -0.500000 2.808219
v -1.054794 -0.500000 2.808219
v -1.054794 -0.500000 4.808219
v -0.054794 -0.500000 4.808219
v -0.054794 -0.500000 6.808219
v 0.945206 -0.500000 6.808219
v 0.945206 -0.500000 8.808219
v 1.945206 -0.500000 8.808219
v 3.945206 -0.500000 8.808219
v 4.945206 -0.500000 8.808219
v 4.945206 -0.500000 6.808219
v 3.945206 -0.500000 6.808219
v 3.945206 -0.500000 4.808219
v 2.945206 -0.500000 4.808219
v 2.945206 -0.500000 2.808219
v 1.945206 -0.500000 2.808219
v 1.945206 -0.500000 0.808219
v -4.054794 -0.500000 -10.191781
v -5.054794 -0.500000 -10.191781
v -4.054794 -0.500000 -9.191781
v -3.054794 -0.500000 -9.191781
v -3.054794 -0.500000 -8.191781
v -2.054794 -0.500000 -8.191781
v -2.054794 -0.500000 -7.191781
v -1.054794 -0.500000 -7.191781
v -1.054794 -0.500000 -6.191781
v -0.054794 -0.500000 -6.191781
v -0.054794 -0.500000 -5.191781
v 0.945206 -0.500000 -5.191781
v 0.945206 -0.500000 -4.191781
v 1.945206 -0.500000 -4.191781
v 1.945206 -0.500000 -3.191781
v 2.945206 -0.500000 -3.191781
v 2.945206 -0.500000 -2.191781
v 3.945206 -0.500000 -2.191781
v 3.945206 -0.500000 -1.191781
v 4.945206 -0.500000 -1.191781
v 4.945206 -0.500000 -0.191781
v -5.054794 -0.500000 -9.191781
v -5.054794 -0.500000 3.808219
v -4.054794 -0.500000 -8.191781
v -3.054794 -0.500000 -7.191781
v -2.054794 -0.500000 -6.191781
v -1.054794 -0.500000 -5.191781
v -0.054794 -0.500000 -4.191781
v 0.945206 -0.500000 -3.191781
v 1.945206 -0.500000 -2.191781
v 2.945206 -0.500000 -1.191781
v 0.945206 -0.500000 2.808219
v 3.945206 -0.500000 -0.191781
v 0.945206 -0.500000 -0.191781
v 1.945206 -0.500000 4.808219
v 2.945206 -0.500000 6.808219
v 1.945206 -0.500000 6.808219
v 0.945206 -0.500000 4.808219
v -0.054794 -0.500000 2.808219
v -1.054794 -0.500000 0.808219
v -2.054794 -0.500000 1.808219
v -2.054794 -0.500000 0.808219
v -3.054794 -0.500000 1.808219
v -4.054794 -0.500000 2.808219
vt 0.095158 0.220332
vt 0.052300 0.263189
vt 0.052300 0.220332
vt 0.095158 0.263189
vt 0.052300 0.177475
vt 0.009443 0.906046
vt 0.009443 0.177475
vt 0.052300 0.863189
vt 0.052300 0.820332
vt 0.095158 0.863189
vt 0.095158 0.820332
vt 0.052300 0.906046
vt 0.538015 0.757329
vt 0.576110 0.719234
vt 0.538015 0.719234
vt 0.576110 0.757329
vt 0.948980 0.987993
vt 0.872790 0.949898
vt 0.948980 0.949898
vt 0.872790 0.987993
vt 0.988375 0.874516
vt 0.340756 0.836421
vt 0.340756 0.874516
vt 0.988375 0.836421
vt 0.628833 0.891536
vt 0.595499 0.924870
vt 0.595499 0.891536
vt 0.628833 0.924870
vt 0.138015 0.777475
vt 0.095158 0.777475
vt 0.138015 0.820332
vt 0.180872 0.734617
vt 0.138015 0.734617
vt 0.180872 0.777475
vt 0.223729 0.691760
vt 0.180872 0.691760
vt 0.223729 0.734617
vt 0.266586 0.648903
vt 0.223729 0.648903
vt 0.266586 0.691760
vt 0.309443 0.606046
vt 0.266586 0.606046
vt 0.309443 0.648903
vt 0.352300 0.563189
vt 0.309443 0.563189
vt 0.352300 0.606046
vt 0.395158 0.520332
vt 0.352300 0.520332
vt 0.395158 0.563189
vt 0.438015 0.477475
vt 0.395158 0.477475
vt 0.438015 0.520332
vt 0.352300 0.306046
vt 0.309443 0.434618
vt 0.309443 0.306046
vt 0.352300 0.391760
vt 0.438015 0.434618
vt 0.523729 0.391760
vt 0.480872 0.434618
vt 0.523729 0.434618
vt 0.480872 0.477475
vt 0.395158 0.220332
vt 0.352300 0.220332
vt 0.395158 0.306046
vt 0.438015 0.134617
vt 0.395158 0.134617
vt 0.438015 0.220332
vt 0.438015 0.048903
vt 0.480872 0.134617
vt 0.480872 0.048903
vt 0.438015 0.006046
vt 0.352300 0.048903
vt 0.352300 0.006046
vt 0.309443 0.134617
vt 0.309443 0.048903
vt 0.352300 0.134617
vt 0.266586 0.220332
vt 0.266586 0.134617
vt 0.309443 0.220332
vt 0.223729 0.306046
vt 0.223729 0.220332
vt 0.266586 0.306046
vt 0.138015 0.348903
vt 0.138015 0.306046
vt 0.180872 0.348903
vt 0.180872 0.391760
vt 0.223729 0.391760
vt 0.138015 0.263189
vt 0.095158 0.306046
vt 0.606123 0.987993
vt 0.568028 0.949898
vt 0.606123 0.949898
vt 0.568028 0.987993
vt 0.201069 0.891754
vt 0.162973 0.929850
vt 0.162973 0.891754
vt 0.201069 0.929850
vt 0.644218 0.987993
vt 0.606123 0.949898
vt 0.644218 0.949898
vt 0.606123 0.987993
vt 0.239164 0.891754
vt 0.201069 0.929850
vt 0.201069 0.891754
vt 0.239164 0.929850
vt 0.682313 0.987993
vt 0.644218 0.949898
vt 0.682313 0.949898
vt 0.644218 0.987993
vt 0.277259 0.891754
vt 0.239164 0.929850
vt 0.239164 0.891754
vt 0.277259 0.929850
vt 0.758504 0.987993
vt 0.682313 0.949898
vt 0.758504 0.949898
vt 0.682313 0.987993
vt 0.990421 0.819829
vt 0.914231 0.781734
vt 0.914231 0.819829
vt 0.990421 0.781734
vt 0.796599 0.987993
vt 0.758504 0.949898
vt 0.796599 0.949898
vt 0.758504 0.987993
vt 0.914231 0.819829
vt 0.838040 0.781734
vt 0.838040 0.819829
vt 0.914231 0.781734
vt 0.834694 0.987993
vt 0.796599 0.949898
vt 0.834694 0.949898
vt 0.796599 0.987993
vt 0.838040 0.819829
vt 0.761850 0.781734
vt 0.761850 0.819829
vt 0.838040 0.781734
vt 0.872790 0.987993
vt 0.834694 0.949898
vt 0.872790 0.949898
vt 0.834694 0.987993
vt 0.761850 0.819829
vt 0.723754 0.781734
vt 0.723754 0.819829
vt 0.761850 0.781734
vt 0.328833 0.891536
vt 0.295499 0.924870
vt 0.295499 0.891536
vt 0.328833 0.924870
vt 0.987075 0.987993
vt 0.948980 0.949898
vt 0.987075 0.949898
vt 0.948980 0.987993
vt 0.395499 0.891536
vt 0.328833 0.924870
vt 0.328833 0.891536
vt 0.395499 0.924870
vt 0.635894 0.821782
vt 0.673989 0.783687
vt 0.635894 0.783687
vt 0.673989 0.821782
vt 0.462166 0.891536
vt 0.395499 0.924870
vt 0.395499 0.891536
vt 0.462166 0.924870
vt 0.597799 0.821782
vt 0.635894 0.783687
vt 0.597799 0.783687
vt 0.635894 0.821782
vt 0.528833 0.891536
vt 0.462166 0.924870
vt 0.462166 0.891536
vt 0.528833 0.924870
vt 0.559704 0.821782
vt 0.597799 0.783687
vt 0.559704 0.783687
vt 0.597799 0.821782
vt 0.595499 0.891536
vt 0.528833 0.924870
vt 0.528833 0.891536
vt 0.595499 0.924870
vt 0.529858 0.989555
vt 0.377477 0.951460
vt 0.529858 0.951460
vt 0.377477 0.989555
vt 0.576110 0.757329
vt 0.614205 0.719234
vt 0.576110 0.719234
vt 0.614205 0.757329
vt 0.995499 0.891536
vt 0.962166 0.924870
vt 0.962166 0.891536
vt 0.995499 0.924870
vt 0.962166 0.891536
vt 0.928833 0.924870
vt 0.928833 0.891536
vt 0.962166 0.924870
vt 0.614205 0.757329
vt 0.652300 0.719234
vt 0.614205 0.719234
vt 0.652300 0.757329
vt 0.928833 0.891536
vt 0.895499 0.924870
vt 0.895499 0.891536
vt 0.928833 0.924870
vt 0.652300 0.757329
vt 0.690396 0.719234
vt 0.652300 0.719234
vt 0.690396 0.757329
vt 0.895499 0.891536
vt 0.862166 0.924870
vt 0.862166 0.891536
vt 0.895499 0.924870
vt 0.690396 0.757329
vt 0.728491 0.719234
vt 0.690396 0.719234
vt 0.728491 0.757329
vt 0.862166 0.891536
vt 0.828833 0.924870
vt 0.828833 0.891536
vt 0.862166 0.924870
vt 0.728491 0.757329
vt 0.766586 0.719234
vt 0.728491 0.719234
vt 0.766586 0.757329
vt 0.828833 0.891536
vt 0.795499 0.924870
vt 0.795499 0.891536
vt 0.828833 0.924870
vt 0.766586 0.757329
vt 0.804681 0.719234
vt 0.766586 0.719234
vt 0.804681 0.757329
vt 0.795499 0.891536
vt 0.762166 0.924870
vt 0.762166 0.891536
vt 0.795499 0.924870
vt 0.804681 0.757329
vt 0.842777 0.719234
vt 0.804681 0.719234
vt 0.842777 0.757329
vt 0.762166 0.891536
vt 0.728833 0.924870
vt 0.728833 0.891536
vt 0.762166 0.924870
vt 0.842777 0.757329
vt 0.880872 0.719234
vt 0.842777 0.719234
vt 0.880872 0.757329
vt 0.728833 0.891536
vt 0.695499 0.924870
vt 0.695499 0.891536
vt 0.728833 0.924870
vt 0.880872 0.757329
vt 0.918967 0.719234
vt 0.880872 0.719234
vt 0.918967 0.757329
vt 0.695499 0.891536
vt 0.662166 0.924870
vt 0.662166 0.891536
vt 0.695499 0.924870
vt 0.918967 0.757329
vt 0.957062 0.719234
vt 0.918967 0.719234
vt 0.957062 0.757329
vt 0.662166 0.891536
vt 0.628833 0.924870
vt 0.628833 0.891536
vt 0.662166 0.924870
vt 0.052300 0.906046
vt 0.009443 0.177475
vt 0.009443 0.906046
vt 0.052300 0.863189
vt 0.052300 0.820332
vt 0.052300 0.220332
vt 0.095158 0.863189
vt 0.095158 0.820332
vt 0.052300 0.263189
vt 0.095158 0.220332
vt 0.095158 0.263189
vt 0.052300 0.177475
vt 0.957062 0.757329
vt 0.995157 0.719234
vt 0.957062 0.719234
vt 0.995157 0.757329
vt 0.138015 0.820332
vt 0.095158 0.777475
vt 0.138015 0.777475
vt 0.180872 0.777475
vt 0.138015 0.734617
vt 0.180872 0.734617
vt 0.223729 0.734617
vt 0.180872 0.691760
vt 0.223729 0.691760
vt 0.266586 0.691760
vt 0.223729 0.648903
vt 0.266586 0.648903
vt 0.309443 0.648903
vt 0.266586 0.606046
vt 0.309443 0.606046
vt 0.352300 0.606046
vt 0.309443 0.563189
vt 0.352300 0.563189
vt 0.395158 0.563189
vt 0.352300 0.520332
vt 0.395158 0.520332
vt 0.438015 0.520332
vt 0.395158 0.477475
vt 0.438015 0.477475
vt 0.352300 0.306046
vt 0.309443 0.306046
vt 0.352300 0.391760
vt 0.480872 0.477475
vt 0.438015 0.434618
vt 0.309443 0.434618
vt 0.523729 0.391760
vt 0.480872 0.434618
vt 0.523729 0.434618
vt 0.395158 0.306046
vt 0.352300 0.220332
vt 0.395158 0.220332
vt 0.438015 0.220332
vt 0.395158 0.134617
vt 0.438015 0.134617
vt 0.480872 0.134617
vt 0.438015 0.048903
vt 0.480872 0.048903
vt 0.352300 0.048903
vt 0.438015 0.006046
vt 0.352300 0.006046
vt 0.352300 0.134617
vt 0.309443 0.048903
vt 0.309443 0.134617
vt 0.309443 0.220332
vt 0.266586 0.134617
vt 0.266586 0.220332
vt 0.266586 0.306046
vt 0.223729 0.220332
vt 0.223729 0.306046
vt 0.223729 0.391760
vt 0.180872 0.348903
vt 0.180872 0.391760
vt 0.138015 0.306046
vt 0.138015 0.348903
vt 0.095158 0.306046
vt 0.138015 0.263189
vn 0.0000 1.0000 0.0000
vn 0.0000 0.0000 1.0000
vn 0.0000 0.0000 -1.0000
vn -1.0000 0.0000 0.0000
vn 1.0000 0.0000 0.0000
vn 0.0000 -1.0000 0.0000
usemtl Material.001
s off
f 1/1/1 2/2/1 3/3/1
f 2/2/1 1/1/1 4/4/1
f 5/5/1 6/6/1 7/7/1
f 6/6/1 5/5/1 8/8/1
f 8/8/2 5/5/2 3/3/2
f 8/8/2 3/3/2 9/9/2
f 8/8/1 9/9/1 10/10/1
f 9/9/2 3/3/2 2/2/2
f 10/10/1 9/9/1 11/11/1
f 12/12/1 6/6/1 8/8/1
f 6/13/3 13/14/3 14/15/3
f 13/14/3 6/13/3 12/16/3
f 15/17/2 16/18/2 17/19/2
f 16/18/2 15/17/2 18/20/2
f 6/21/4 19/22/4 7/23/4
f 19/22/4 6/21/4 14/24/4
f 20/25/5 21/26/5 22/27/5
f 21/26/5 20/25/5 23/28/5
f 24/29/1 11/11/1 25/30/1
f 11/11/1 24/29/1 26/31/1
f 27/32/1 24/29/1 28/33/1
f 24/29/1 27/32/1 29/34/1
f 30/35/1 27/32/1 31/36/1
f 27/32/1 30/35/1 32/37/1
f 33/38/1 30/35/1 34/39/1
f 30/35/1 33/38/1 35/40/1
f 36/41/1 33/38/1 37/42/1
f 33/38/1 36/41/1 38/43/1
f 39/44/1 36/41/1 40/45/1
f 36/41/1 39/44/1 41/46/1
f 42/47/1 39/44/1 43/48/1
f 39/44/1 42/47/1 44/49/1
f 45/50/1 42/47/1 46/51/1
f 42/47/1 45/50/1 47/52/1
f 48/53/1 49/54/1 50/55/1
f 49/54/1 48/53/1 51/56/1
f 49/54/1 51/56/1 52/57/1
f 52/57/1 51/56/1 21/58/1
f 52/57/1 21/58/1 53/59/1
f 52/57/1 53/59/1 45/50/1
f 53/59/1 21/58/1 23/60/1
f 54/61/1 45/50/1 53/59/1
f 55/62/1 48/53/1 56/63/1
f 48/53/1 55/62/1 57/64/1
f 58/65/1 55/62/1 59/66/1
f 55/62/1 58/65/1 60/67/1
f 61/68/1 62/69/1 58/65/1
f 62/69/1 61/68/1 63/70/1
f 15/71/1 64/72/1 18/73/1
f 64/72/1 15/71/1 61/68/1
f 64/72/1 65/74/1 66/75/1
f 65/74/1 64/72/1 67/76/1
f 65/74/1 68/77/1 69/78/1
f 68/77/1 65/74/1 70/79/1
f 68/77/1 71/80/1 72/81/1
f 71/80/1 68/77/1 73/82/1
f 71/80/1 74/83/1 75/84/1
f 74/83/1 71/80/1 76/85/1
f 76/85/1 71/80/1 77/86/1
f 77/86/1 71/80/1 78/87/1
f 79/88/1 80/89/1 4/4/1
f 80/89/1 79/88/1 75/84/1
f 61/68/1 67/76/1 64/72/1
f 67/76/1 61/68/1 59/66/1
f 59/66/1 61/68/1 58/65/1
f 67/76/1 70/79/1 65/74/1
f 70/79/1 67/76/1 56/63/1
f 56/63/1 67/76/1 55/62/1
f 55/62/1 67/76/1 59/66/1
f 49/54/1 46/51/1 43/48/1
f 46/51/1 49/54/1 52/57/1
f 46/51/1 52/57/1 45/50/1
f 42/47/1 43/48/1 46/51/1
f 70/79/1 73/82/1 68/77/1
f 73/82/1 70/79/1 50/55/1
f 73/82/1 50/55/1 40/45/1
f 50/55/1 70/79/1 48/53/1
f 48/53/1 70/79/1 56/63/1
f 40/45/1 49/54/1 39/44/1
f 49/54/2 40/45/2 50/55/2
f 39/44/1 49/54/1 43/48/1
f 73/82/1 78/87/1 71/80/1
f 78/87/1 73/82/1 37/42/1
f 37/42/1 73/82/1 36/41/1
f 36/41/1 73/82/1 40/45/1
f 78/87/1 34/39/1 77/86/1
f 34/39/1 78/87/1 33/38/1
f 33/38/1 78/87/1 37/42/1
f 76/85/1 31/36/1 74/83/1
f 31/36/2 76/85/2 77/86/2
f 31/36/1 77/86/1 30/35/1
f 30/35/1 77/86/1 34/39/1
f 75/84/1 28/33/1 80/89/1
f 28/33/2 75/84/2 74/83/2
f 28/33/1 74/83/1 27/32/1
f 27/32/1 74/83/1 31/36/1
f 4/4/1 9/9/1 2/2/1
f 9/9/1 4/4/1 25/30/1
f 25/30/2 4/4/2 80/89/2
f 25/30/1 80/89/1 24/29/1
f 24/29/1 80/89/1 28/33/1
f 11/11/1 9/9/1 25/30/1
f 5/90/2 19/91/2 81/92/2
f 19/91/2 5/90/2 7/93/2
f 82/94/5 5/95/5 81/96/5
f 5/95/5 82/94/5 3/97/5
f 1/98/2 82/99/2 83/100/2
f 82/99/2 1/98/2 3/101/2
f 84/102/5 1/103/5 83/104/5
f 1/103/5 84/102/5 4/105/5
f 79/106/2 84/107/2 85/108/2
f 84/107/2 79/106/2 4/109/2
f 86/110/5 79/111/5 85/112/5
f 79/111/5 86/110/5 75/113/5
f 71/114/2 86/115/2 87/116/2
f 86/115/2 71/114/2 75/117/2
f 71/118/4 88/119/4 72/120/4
f 88/119/4 71/118/4 87/121/4
f 68/122/2 88/123/2 89/124/2
f 88/123/2 68/122/2 72/125/2
f 68/126/4 90/127/4 69/128/4
f 90/127/4 68/126/4 89/129/4
f 65/130/2 90/131/2 91/132/2
f 90/131/2 65/130/2 69/133/2
f 65/134/4 92/135/4 66/136/4
f 92/135/4 65/134/4 91/137/4
f 64/138/2 92/139/2 93/140/2
f 92/139/2 64/138/2 66/141/2
f 64/142/4 16/143/4 18/144/4
f 16/143/4 64/142/4 93/145/4
f 94/146/5 15/147/5 17/148/5
f 15/147/5 94/146/5 61/149/5
f 63/150/2 94/151/2 95/152/2
f 94/151/2 63/150/2 61/153/2
f 96/154/5 63/155/5 95/156/5
f 63/155/5 96/154/5 62/157/5
f 58/158/3 96/159/3 97/160/3
f 96/159/3 58/158/3 62/161/3
f 98/162/5 58/163/5 97/164/5
f 58/163/5 98/162/5 60/165/5
f 55/166/3 98/167/3 99/168/3
f 98/167/3 55/166/3 60/169/3
f 100/170/5 55/171/5 99/172/5
f 55/171/5 100/170/5 57/173/5
f 48/174/3 100/175/3 101/176/3
f 100/175/3 48/174/3 57/177/3
f 102/178/5 48/179/5 101/180/5
f 48/179/5 102/178/5 51/181/5
f 21/182/2 102/183/2 22/184/2
f 102/183/2 21/182/2 51/185/2
f 8/186/3 103/187/3 104/188/3
f 103/187/3 8/186/3 10/189/3
f 13/190/5 8/191/5 104/192/5
f 8/191/5 13/190/5 12/193/5
f 103/194/5 11/195/5 105/196/5
f 11/195/5 103/194/5 10/197/5
f 11/198/3 106/199/3 105/200/3
f 106/199/3 11/198/3 26/201/3
f 106/202/5 24/203/5 107/204/5
f 24/203/5 106/202/5 26/205/5
f 24/206/3 108/207/3 107/208/3
f 108/207/3 24/206/3 29/209/3
f 108/210/5 27/211/5 109/212/5
f 27/211/5 108/210/5 29/213/5
f 27/214/3 110/215/3 109/216/3
f 110/215/3 27/214/3 32/217/3
f 110/218/5 30/219/5 111/220/5
f 30/219/5 110/218/5 32/221/5
f 30/222/3 112/223/3 111/224/3
f 112/223/3 30/222/3 35/225/3
f 112/226/5 33/227/5 113/228/5
f 33/227/5 112/226/5 35/229/5
f 33/230/3 114/231/3 113/232/3
f 114/231/3 33/230/3 38/233/3
f 114/234/5 36/235/5 115/236/5
f 36/235/5 114/234/5 38/237/5
f 36/238/3 116/239/3 115/240/3
f 116/239/3 36/238/3 41/241/3
f 116/242/5 39/243/5 117/244/5
f 39/243/5 116/242/5 41/245/5
f 39/246/3 118/247/3 117/248/3
f 118/247/3 39/246/3 44/249/3
f 118/250/5 42/251/5 119/252/5
f 42/251/5 118/250/5 44/253/5
f 42/254/3 120/255/3 119/256/3
f 120/255/3 42/254/3 47/257/3
f 120/258/5 45/259/5 121/260/5
f 45/259/5 120/258/5 47/261/5
f 45/262/3 122/263/3 121/264/3
f 122/263/3 45/262/3 54/265/3
f 122/266/5 53/267/5 123/268/5
f 53/267/5 122/266/5 54/269/5
f 13/270/6 19/271/6 14/272/6
f 19/271/6 13/270/6 104/273/6
f 104/273/2 124/274/2 82/275/2
f 124/274/6 104/273/6 103/276/6
f 124/274/6 103/276/6 105/277/6
f 82/275/6 125/278/6 83/279/6
f 125/278/2 82/275/2 124/274/2
f 83/279/6 125/278/6 84/280/6
f 104/273/6 81/281/6 19/271/6
f 81/281/2 104/273/2 82/275/2
f 53/282/3 20/283/3 123/284/3
f 20/283/3 53/282/3 23/285/3
f 106/286/6 126/287/6 105/277/6
f 126/287/6 106/286/6 107/288/6
f 108/289/6 127/290/6 107/288/6
f 127/290/6 108/289/6 109/291/6
f 110/292/6 128/293/6 109/291/6
f 128/293/6 110/292/6 111/294/6
f 112/295/6 129/296/6 111/294/6
f 129/296/6 112/295/6 113/297/6
f 114/298/6 130/299/6 113/297/6
f 130/299/6 114/298/6 115/300/6
f 116/301/6 131/302/6 115/300/6
f 131/302/6 116/301/6 117/303/6
f 118/304/6 132/305/6 117/303/6
f 132/305/6 118/304/6 119/306/6
f 120/307/6 133/308/6 119/306/6
f 133/308/6 120/307/6 121/309/6
f 101/310/6 134/311/6 102/312/6
f 122/313/6 135/314/6 121/309/6
f 136/315/6 102/312/6 134/311/6
f 102/312/6 136/315/6 135/314/6
f 102/312/6 135/314/6 22/316/6
f 22/316/6 135/314/6 123/317/6
f 123/317/6 135/314/6 122/313/6
f 22/316/6 123/317/6 20/318/6
f 100/319/6 137/320/6 101/310/6
f 137/320/6 100/319/6 99/321/6
f 98/322/6 138/323/6 99/321/6
f 138/323/6 98/322/6 97/324/6
f 96/325/6 94/326/6 97/324/6
f 94/326/6 96/325/6 95/327/6
f 93/328/6 17/329/6 16/330/6
f 17/329/6 93/328/6 94/326/6
f 139/331/6 92/332/6 91/333/6
f 92/332/6 139/331/6 93/328/6
f 140/334/6 90/335/6 89/336/6
f 90/335/6 140/334/6 91/333/6
f 141/337/6 88/338/6 87/339/6
f 88/338/6 141/337/6 89/336/6
f 142/340/6 143/341/6 144/342/6
f 143/341/6 86/343/6 145/344/6
f 86/343/6 143/341/6 87/339/6
f 87/339/6 143/341/6 142/340/6
f 86/343/6 84/280/6 146/345/6
f 84/280/6 86/343/6 85/346/6
f 117/303/6 136/315/6 131/302/6
f 136/315/6 117/303/6 132/305/6
f 136/315/6 132/305/6 135/314/6
f 135/314/2 132/305/2 133/308/2
f 133/308/6 132/305/6 119/306/6
f 135/314/6 133/308/6 121/309/6
f 111/294/6 144/342/6 128/293/6
f 144/342/6 111/294/6 129/296/6
f 144/342/6 129/296/6 142/340/6
f 142/340/6 129/296/6 113/297/6
f 142/340/6 113/297/6 87/339/6
f 87/339/6 113/297/6 130/299/6
f 87/339/6 130/299/6 141/337/6
f 141/337/6 130/299/6 115/300/6
f 141/337/6 115/300/6 89/336/6
f 89/336/6 115/300/6 131/302/6
f 89/336/6 131/302/6 134/311/6
f 89/336/6 134/311/6 140/334/6
f 134/311/2 131/302/2 136/315/2
f 140/334/6 134/311/6 101/310/6
f 140/334/6 101/310/6 91/333/6
f 91/333/6 101/310/6 137/320/6
f 91/333/6 137/320/6 139/331/6
f 139/331/6 137/320/6 99/321/6
f 139/331/6 99/321/6 93/328/6
f 93/328/6 99/321/6 138/323/6
f 93/328/6 138/323/6 94/326/6
f 94/326/6 138/323/6 97/324/6
f 109/291/6 145/344/6 127/290/6
f 145/344/6 109/291/6 128/293/6
f 145/344/6 128/293/6 143/341/6
f 143/341/2 128/293/2 144/342/2
f 107/288/6 146/345/6 126/287/6
f 146/345/6 107/288/6 127/290/6
f 146/345/6 127/290/6 86/343/6
f 86/343/2 127/290/2 145/344/2
f 105/277/6 125/278/6 124/274/6
f 125/278/6 105/277/6 126/287/6
f 125/278/6 126/287/6 84/280/6
f 84/280/2 126/287/2 146/345/2
