# Blender v2.79 (sub 0) OBJ File: ''
# www.blender.org
mtllib hat_ear_l.mtl
o Handle1
v -0.051518 0.583752 -1.106610
v -0.051518 0.640187 -1.111409
v -0.051518 0.662869 -1.002309
v -0.051518 0.640042 -1.111710
v -0.051518 0.460337 -1.072308
v -0.051518 0.658415 -0.898808
v -0.051518 0.629604 -0.776410
v -0.051518 0.353841 -1.038209
v -0.051518 0.252558 -0.981709
v -0.051518 0.597996 -0.678311
v -0.051518 0.106448 -0.880109
v -0.051518 0.519485 -0.521910
v -0.051518 0.062484 -0.828912
v -0.051518 0.475016 -0.471209
vt 0.412300 0.214700
vt 0.422300 0.232800
vt 0.457800 0.215200
vt 0.422200 0.232900
vt 0.397800 0.171400
vt 0.485600 0.190900
vt 0.512900 0.155900
vt 0.387100 0.134800
vt 0.383600 0.096700
vt 0.532500 0.126200
vt 0.384100 0.040800
vt 0.556400 0.073100
vt 0.389400 0.020800
vt 0.559900 0.051600
vn 1.0000 0.0000 0.0000
vn 0.9191 0.3928 -0.0314
vn 0.9193 -0.0236 -0.3929
usemtl Handle1Mtl
s 1
f 1/1/1 2/2/1 3/3/1
f 2/2/1 1/1/1 4/4/1
f 3/3/1 5/5/1 1/1/1
f 5/5/1 3/3/1 6/6/1
f 7/7/1 5/5/1 6/6/1
f 5/5/1 7/7/1 8/8/1
f 7/7/1 9/9/1 8/8/1
f 9/9/1 7/7/1 10/10/1
f 10/10/1 11/11/1 9/9/1
f 11/11/1 10/10/1 12/12/1
f 12/12/1 13/13/2 11/11/1
f 13/13/2 12/12/1 14/14/3
