# Blender v2.78 (sub 0) OBJ File: ''
# www.blender.org
mtllib nya_ear_outer.mtl
o stroll_p_body4_model1.001
v 0.998633 -0.931723 -0.376500
v 0.923967 -1.674642 -0.656426
v 0.869660 -0.684837 -0.929127
v 0.764978 -1.456577 -1.246327
v 0.414416 -1.176968 -1.713608
v -2.073806 -0.428924 -0.598069
v -2.239394 -0.627068 0.210856
v -1.677889 0.235999 -0.327296
v -1.581565 -0.485577 -1.448647
v -1.202767 0.216292 -1.093311
v -0.438242 -0.787816 -1.868185
v -0.264118 0.014160 -1.455096
v 0.548652 -0.376004 -1.359368
v 0.673156 0.391623 -0.868622
v 0.025173 0.801874 -0.847094
v 0.213658 1.245846 -0.265432
v -2.205197 -0.677143 0.282119
v -1.785970 -0.057288 0.440417
v -1.826764 0.000613 0.397365
v -1.135027 0.897725 -0.032476
v -0.720745 0.855942 -0.682210
v -0.206384 1.445201 -0.137604
v 0.418862 1.620310 0.136587
v 0.155400 1.798730 0.169463
v -0.417660 1.572653 0.254418
v -0.587904 1.316253 0.688626
v -1.226482 0.684958 0.567133
v -1.186615 0.619498 0.596564
v 0.738134 1.006226 -0.223526
v 0.955488 0.082276 -0.550991
v 0.691770 1.460937 0.165173
v 0.704774 2.249689 0.919628
v 0.017312 1.808921 0.529098
v -0.115631 1.590281 0.800848
v -0.558297 1.268442 0.734599
v -0.516113 1.248361 0.720584
v -1.134219 0.581392 0.566125
v -1.731941 -0.087436 0.423898
v -2.146226 -0.701134 0.284755
v 0.964832 0.819522 -0.088924
v 0.840861 1.373184 0.275161
v -0.088337 1.545774 0.818856
v -0.106991 1.564896 0.828356
v 1.046249 0.676005 0.146158
v 1.046082 -0.165617 -0.111010
v 0.894010 1.282748 0.433048
v 0.993026 -0.442081 0.383653
v 0.908328 -1.236601 0.245222
v 1.039126 0.361523 0.563279
v 0.952720 1.085102 0.659464
v 0.818792 1.060426 0.958292
v 0.822573 0.170725 0.991039
v 0.796011 -0.639259 1.027730
v 0.674054 -1.462212 1.016367
v 0.490167 -2.254998 0.901235
v 0.798530 -2.006834 0.091317
v 0.418603 -2.240820 0.916074
v 0.604274 -1.449161 1.029721
v 0.732416 -0.632408 1.043086
v 0.771629 0.176908 0.987145
v 0.767221 1.043428 0.954526
v 0.696287 2.233525 0.926658
v 0.685488 2.211559 0.932074
v 0.753211 1.057776 0.912782
v 0.750848 0.192964 0.953771
v 0.715948 -0.606908 1.001541
v 0.582079 -1.417881 0.986417
v 0.394522 -2.208087 0.873844
v 0.668882 2.176814 0.938336
v 0.909410 1.064352 0.649735
v -0.445179 -0.815606 -1.787917
v 0.329637 -1.133878 -1.612065
v -0.282115 -0.077689 -1.434605
v 0.506153 -0.394815 -1.284336
v 0.802297 -0.752998 -0.887268
v 0.676580 0.346284 -0.854824
v 0.917092 0.019696 -0.530676
v 0.729784 0.974033 -0.213852
v 0.930573 0.771499 -0.063127
v 0.678834 1.432157 0.176929
v 0.848644 1.329490 0.304469
v 0.879513 1.241710 0.457591
v 0.973154 0.340514 0.565671
v 0.912790 -0.465486 0.383556
v 0.807595 -1.265273 0.230791
v 0.029109 0.702221 -0.856617
v -1.167308 0.157527 -1.041275
v 0.688712 -1.445139 -1.206041
v 0.855896 -1.694397 -0.677332
v 0.695696 -1.972101 0.056418
v 0.906464 -1.049925 -0.367287
v 0.965927 -0.245026 -0.084320
v 0.986174 0.611795 0.188510
v 0.207001 1.160651 -0.270306
v 0.434731 1.574348 0.164730
v 0.179193 1.770284 0.183547
v -0.170862 1.392344 -0.106902
v -0.695227 0.687385 -0.628837
v -1.597762 0.159012 -0.252924
v -1.063856 0.789005 0.003888
v -0.365462 1.484003 0.292046
v 0.042627 1.772644 0.545028
v -2.005846 -0.484214 -0.536691
v -1.539368 -0.522455 -1.399781
vt 0.5221 0.3653
vt 0.5635 0.3091
vt 0.5635 0.3979
vt 0.3604 0.4344
vt 0.4160 0.4301
vt 0.4160 0.5037
vt 0.2295 0.4525
vt 0.2755 0.4202
vt 0.2755 0.5100
vt 0.2246 0.3826
vt 0.2246 0.4530
vt 0.1615 0.3959
vt 0.3694 0.3268
vt 0.3249 0.2661
vt 0.3694 0.2123
vt 0.3271 0.1516
vt 0.3704 0.0902
vt 0.3704 0.2047
vt 0.0661 0.0000
vt 0.0752 0.1092
vt 0.0000 0.1092
vt 0.0000 0.1653
vt 0.0543 0.1092
vt 0.0543 0.2369
vt 0.0752 0.1813
vt 0.1449 0.1795
vt 0.1449 0.2575
vt 0.0752 0.3132
vt 0.1236 0.2575
vt 0.1236 0.3608
vt 0.5008 0.2123
vt 0.5008 0.2899
vt 0.4471 0.2843
vt 0.4672 0.0902
vt 0.4672 0.1708
vt 0.4133 0.0917
vt 0.2207 0.2123
vt 0.2295 0.2913
vt 0.1615 0.2913
vt 0.2740 0.1153
vt 0.3271 0.0902
vt 0.3271 0.1888
vt 0.1561 0.0000
vt 0.1651 0.0902
vt 0.0752 0.0902
vt 0.1614 0.3554
vt 0.1236 0.3105
vt 0.1614 0.2575
vt 0.4673 0.6137
vt 0.4750 0.6117
vt 0.4750 0.6688
vt 0.3223 0.9356
vt 0.3223 0.9942
vt 0.3165 0.9389
vt 0.5247 0.0851
vt 0.4804 0.0468
vt 0.5247 0.0000
vt 0.4804 0.0658
vt 0.4170 0.0539
vt 0.4804 0.0000
vt 0.2791 0.3199
vt 0.2295 0.2728
vt 0.2791 0.2123
vt 0.2791 0.3914
vt 0.3220 0.3254
vt 0.3220 0.4330
vt 0.3694 0.2659
vt 0.4096 0.2123
vt 0.4096 0.3335
vt 0.2987 0.0778
vt 0.2317 0.0778
vt 0.2614 0.0000
vt 0.1615 0.7052
vt 0.1912 0.6472
vt 0.1912 0.7335
vt 0.3950 0.7870
vt 0.3604 0.7493
vt 0.3950 0.7272
vt 0.2791 0.8816
vt 0.3007 0.8689
vt 0.3007 0.9286
vt 0.4491 0.7414
vt 0.4491 0.7931
vt 0.4129 0.7807
vt 0.6302 0.4874
vt 0.5919 0.4874
vt 0.6164 0.3994
vt 0.6501 0.0998
vt 0.6922 0.0982
vt 0.6922 0.1655
vt 0.0752 0.6281
vt 0.1152 0.5866
vt 0.1152 0.6646
vt 0.5744 0.9930
vt 0.5700 0.9355
vt 0.5744 0.9306
vt 0.5180 0.5703
vt 0.5225 0.5655
vt 0.5225 0.6324
vt 0.4375 0.9801
vt 0.4321 0.9170
vt 0.4375 0.9132
vt 0.6066 0.1734
vt 0.5653 0.1254
vt 0.6066 0.0902
vt 0.2147 0.3826
vt 0.1615 0.3184
vt 0.2147 0.2913
vt 0.2747 0.5100
vt 0.2747 0.5871
vt 0.2295 0.5146
vt 0.5877 0.2482
vt 0.6222 0.1781
vt 0.6222 0.2760
vt 0.5525 0.1588
vt 0.5525 0.2113
vt 0.5109 0.1960
vt 0.9050 0.9502
vt 0.8817 0.9502
vt 0.9039 0.8991
vt 0.7858 0.5816
vt 0.7858 0.6772
vt 0.7640 0.6692
vt 0.7394 0.6819
vt 0.7394 0.7722
vt 0.7154 0.7647
vt 0.7870 0.1781
vt 0.7870 0.2643
vt 0.7621 0.2530
vt 0.4129 0.8713
vt 0.4378 0.8597
vt 0.4378 0.9132
vt 0.9653 0.9643
vt 0.9457 0.9428
vt 0.9653 0.9132
vt 0.7912 0.9152
vt 0.8144 0.8992
vt 0.8144 0.9503
vt 0.2172 0.5517
vt 0.2116 0.5241
vt 0.2172 0.5218
vt 0.5996 0.6747
vt 0.6048 0.6717
vt 0.6048 0.7340
vt 0.7151 0.8963
vt 0.7113 0.8948
vt 0.7151 0.8165
vt 0.6785 0.9091
vt 0.6845 0.8302
vt 0.6845 0.9100
vt 0.4757 0.9620
vt 0.4697 0.9612
vt 0.4757 0.8829
vt 0.5996 0.6700
vt 0.6046 0.5926
vt 0.6046 0.6717
vt 0.6533 0.9090
vt 0.6533 0.9724
vt 0.6480 0.9716
vt 0.2242 0.7951
vt 0.2198 0.7931
vt 0.2242 0.7305
vt 0.0457 0.8601
vt 0.0678 0.8039
vt 0.0748 0.8601
vt 0.6024 0.8197
vt 0.5800 0.8064
vt 0.6024 0.7342
vt 0.9061 0.8870
vt 0.9279 0.8413
vt 0.9279 0.9012
vt 0.4544 0.9759
vt 0.4389 0.9699
vt 0.4544 0.9159
vt 0.1584 0.7797
vt 0.1584 0.8732
vt 0.1420 0.7824
vt 0.4661 0.9137
vt 0.4697 0.8674
vt 0.4697 0.9158
vt 0.4757 0.5183
vt 0.4734 0.5178
vt 0.4757 0.4699
vt 0.6521 0.0795
vt 0.6110 0.0143
vt 0.6521 0.0000
vt 0.3475 0.8131
vt 0.3226 0.8131
vt 0.3472 0.7375
vt 0.9061 0.8991
vt 0.8817 0.8466
vt 0.9061 0.8413
vt 0.5996 0.6863
vt 0.5689 0.6561
vt 0.5996 0.5926
vt 0.6357 0.3711
vt 0.6686 0.3014
vt 0.6686 0.3989
vt 0.7132 0.2756
vt 0.6853 0.2446
vt 0.7132 0.1781
vt 0.3226 0.7044
vt 0.3541 0.6599
vt 0.3541 0.7375
vt 0.9174 0.3761
vt 0.9008 0.3558
vt 0.9174 0.2936
vt 0.0164 0.9726
vt 0.0000 0.9719
vt 0.0164 0.9164
vt 0.2791 0.6794
vt 0.2627 0.5877
vt 0.2791 0.5871
vt 0.7410 0.0906
vt 0.7629 0.0000
vt 0.7629 0.1052
vt 0.7283 0.3014
vt 0.7283 0.3958
vt 0.6995 0.3945
vt 0.8526 0.5971
vt 0.8768 0.5816
vt 0.8768 0.6487
vt 0.1602 0.6388
vt 0.1602 0.7062
vt 0.1188 0.6917
vt 0.6490 0.7041
vt 0.6051 0.7041
vt 0.6451 0.6479
vt 0.2116 0.5908
vt 0.1615 0.5573
vt 0.2116 0.5218
vt 0.2791 0.6138
vt 0.3226 0.5703
vt 0.3226 0.6459
vt 0.2179 0.5218
vt 0.1615 0.5218
vt 0.1866 0.4530
vt 0.4800 0.3649
vt 0.5221 0.3091
vt 0.5221 0.3994
vt 0.5166 0.4969
vt 0.4757 0.4299
vt 0.5166 0.3994
vt 0.3392 0.5005
vt 0.2791 0.5005
vt 0.3261 0.4330
vt 0.3304 0.5005
vt 0.3304 0.5703
vt 0.2791 0.5649
vt 0.5301 0.5566
vt 0.5689 0.4969
vt 0.5689 0.5906
vt 0.5534 0.2123
vt 0.5534 0.2835
vt 0.5008 0.2798
vt 0.6501 0.1655
vt 0.6066 0.1639
vt 0.6501 0.0902
vt 0.6357 0.3989
vt 0.6007 0.3699
vt 0.6357 0.3032
vt 0.5228 0.7069
vt 0.5165 0.7061
vt 0.5228 0.6443
vt 0.3603 0.6599
vt 0.3603 0.7227
vt 0.3541 0.7218
vt 0.2535 0.9222
vt 0.2474 0.9214
vt 0.2535 0.8648
vt 0.8808 0.9385
vt 0.8808 0.9961
vt 0.8752 0.9952
vt 0.1185 0.7960
vt 0.1127 0.7960
vt 0.1148 0.7453
vt 0.6277 0.9330
vt 0.6277 0.9845
vt 0.6236 0.9835
vt 0.5228 0.7617
vt 0.5187 0.7609
vt 0.5228 0.7069
vt 0.6532 0.6479
vt 0.6532 0.7041
vt 0.6490 0.7018
vt 0.1252 0.5849
vt 0.1209 0.5829
vt 0.1252 0.5098
vt 0.4160 0.5037
vt 0.4160 0.5982
vt 0.4151 0.5972
vt 0.1603 0.5084
vt 0.1614 0.4330
vt 0.1614 0.5097
vt 0.6810 0.6794
vt 0.6847 0.6780
vt 0.6847 0.7824
vt 0.1911 0.9093
vt 0.1911 0.9852
vt 0.1873 0.9108
vt 0.2760 0.3215
vt 0.2791 0.3199
vt 0.2791 0.3959
vt 0.2791 0.3959
vt 0.2791 0.4660
vt 0.2760 0.3975
vt 0.8144 0.9017
vt 0.8181 0.8992
vt 0.8181 0.9702
vt 0.0739 0.9132
vt 0.0739 0.9842
vt 0.0700 0.9152
vt 0.6804 0.9127
vt 0.6845 0.9100
vt 0.6845 0.9815
vt 0.2292 0.3797
vt 0.2292 0.4498
vt 0.2247 0.3817
vt 0.2747 0.5121
vt 0.2791 0.5100
vt 0.2791 0.5802
vt 0.5500 0.8253
vt 0.5523 0.7367
vt 0.5523 0.8256
vt 0.3312 0.5022
vt 0.3321 0.5005
vt 0.3321 0.5611
vt 0.3304 0.5017
vt 0.3312 0.5005
vt 0.3312 0.5623
vt 0.1614 0.8415
vt 0.1584 0.7811
vt 0.1614 0.7797
vt 0.2760 0.4672
vt 0.2791 0.4660
vt 0.2791 0.4959
vt 0.3604 0.4301
vt 0.3604 0.5283
vt 0.3394 0.4303
vt 0.4757 0.4699
vt 0.4160 0.4699
vt 0.4682 0.3994
vt 0.0611 0.3943
vt 0.0611 0.4643
vt 0.0000 0.4573
vt 0.4160 0.5912
vt 0.4610 0.5356
vt 0.4610 0.6117
vt 0.5551 0.4959
vt 0.5166 0.4305
vt 0.5551 0.3994
vt 0.6533 0.6099
vt 0.6847 0.5816
vt 0.6847 0.6780
vt 0.5180 0.5655
vt 0.5180 0.6443
vt 0.4757 0.6422
vt 0.8206 0.4931
vt 0.8406 0.4804
vt 0.8406 0.5679
vt 0.4958 0.9438
vt 0.4757 0.8955
vt 0.4958 0.8829
vt 0.4544 0.9208
vt 0.4696 0.9159
vt 0.4696 0.9767
vt 0.9802 0.9740
vt 0.9653 0.9693
vt 0.9802 0.9132
vt 0.8977 0.6804
vt 0.8977 0.7715
vt 0.8820 0.6815
vt 0.7986 0.5806
vt 0.7785 0.4918
vt 0.7986 0.4804
vt 0.9281 0.1005
vt 0.9429 0.0829
vt 0.9429 0.1626
vt 0.9220 0.0688
vt 0.9025 0.0608
vt 0.9220 0.0000
vt 0.7132 0.1773
vt 0.7467 0.1092
vt 0.7467 0.1781
vt 0.4160 0.6741
vt 0.4491 0.6689
vt 0.4491 0.7414
vt 0.5247 0.0518
vt 0.5721 0.0000
vt 0.5721 0.0750
vt 0.0000 0.4657
vt 0.0527 0.4643
vt 0.0527 0.5358
vt 0.2295 0.3796
vt 0.2756 0.3199
vt 0.2756 0.4202
vt 0.2987 0.0052
vt 0.3535 0.0000
vt 0.3535 0.0893
vt 0.1615 0.0902
vt 0.1615 0.1795
vt 0.0752 0.1016
vt 0.6533 0.6479
vt 0.6051 0.6479
vt 0.6160 0.5816
vt 0.3604 0.5358
vt 0.4022 0.5037
vt 0.4022 0.5884
vt 0.4170 0.0000
vt 0.4170 0.0710
vt 0.3535 0.0105
vt 0.3694 0.4235
vt 0.3227 0.3711
vt 0.3694 0.3268
vt 0.3694 0.3862
vt 0.4160 0.3335
vt 0.4160 0.4301
vt 0.4726 0.3335
vt 0.4800 0.3994
vt 0.4160 0.3994
vt 0.5721 0.0493
vt 0.6110 0.0000
vt 0.6110 0.0869
vt 0.6445 0.5816
vt 0.6051 0.5326
vt 0.6445 0.4969
vt 0.0752 0.5098
vt 0.0877 0.4359
vt 0.1284 0.5098
vt 0.0457 0.6105
vt 0.0000 0.6105
vt 0.0065 0.5358
vt 0.0752 0.5866
vt 0.0927 0.5098
vt 0.1209 0.5866
vt 0.1614 0.4330
vt 0.1349 0.4330
vt 0.1351 0.3554
vt 0.6847 0.8751
vt 0.6952 0.8165
vt 0.7113 0.8751
vt 0.7139 0.7500
vt 0.6847 0.6981
vt 0.7139 0.6703
vt 0.0457 0.6701
vt 0.0739 0.6413
vt 0.0739 0.7369
vt 0.6051 0.5926
vt 0.5689 0.5226
vt 0.6051 0.4969
vt 0.2295 0.6166
vt 0.2627 0.5871
vt 0.2627 0.6799
vt 0.5109 0.1830
vt 0.4672 0.1221
vt 0.5109 0.0902
vt 0.5635 0.3437
vt 0.6007 0.3032
vt 0.6007 0.3979
vt 0.6566 0.2728
vt 0.6222 0.2021
vt 0.6566 0.1781
vt 0.4757 0.7629
vt 0.4901 0.7121
vt 0.5177 0.7629
vt 0.9265 0.9568
vt 0.9061 0.9568
vt 0.9105 0.9012
vt 0.8526 0.5816
vt 0.8526 0.6748
vt 0.8342 0.5903
vt 0.8206 0.3879
vt 0.7990 0.3110
vt 0.8206 0.3014
vt 0.2751 0.9342
vt 0.2537 0.9240
vt 0.2751 0.8768
vt 0.7467 0.1511
vt 0.7835 0.1092
vt 0.7835 0.1666
vt 0.7520 0.5789
vt 0.7262 0.5184
vt 0.7520 0.4879
vt 0.2317 0.0839
vt 0.1651 0.0839
vt 0.2003 0.0000
vt 0.4471 0.3286
vt 0.4096 0.2736
vt 0.4471 0.2123
vt 0.0670 0.3225
vt 0.0670 0.3943
vt 0.0000 0.3332
vt 0.0752 0.3672
vt 0.1343 0.3608
vt 0.1343 0.4359
vt 0.2294 0.5543
vt 0.2294 0.6472
vt 0.2137 0.6444
vt 0.0000 0.3225
vt 0.0261 0.2369
vt 0.0595 0.3225
vt 0.3226 0.5755
vt 0.3588 0.5703
vt 0.3588 0.6599
vt 0.2592 0.7577
vt 0.2592 0.8095
vt 0.2243 0.7690
vt 0.1892 0.9093
vt 0.1615 0.9093
vt 0.1665 0.8610
vt 0.8109 0.5816
vt 0.8109 0.6615
vt 0.7858 0.5934
vt 0.6288 0.8966
vt 0.6051 0.8392
vt 0.6288 0.8335
vt 0.4129 0.9282
vt 0.4321 0.9132
vt 0.4321 0.9656
vt 0.2115 0.9651
vt 0.1912 0.9392
vt 0.2115 0.9128
vt 0.0752 0.6822
vt 0.1035 0.6646
vt 0.1035 0.7509
vt 0.6983 0.4857
vt 0.6660 0.4302
vt 0.6983 0.3994
vt 0.6686 0.3336
vt 0.6995 0.3014
vt 0.6995 0.3912
vt 0.6660 0.4893
vt 0.6302 0.4368
vt 0.6660 0.3994
vt 0.4673 0.6117
vt 0.4673 0.6689
vt 0.4160 0.6186
vt 0.4160 0.4924
vt 0.4733 0.4699
vt 0.4733 0.5356
vt 0.2791 0.2721
vt 0.3249 0.2123
vt 0.3249 0.3254
vt 0.4133 0.2033
vt 0.3704 0.1427
vt 0.4133 0.0902
vt 0.1615 0.1728
vt 0.2244 0.0902
vt 0.2244 0.2123
vt 0.2740 0.2123
vt 0.2244 0.1617
vt 0.2740 0.0902
vn 0.9961 -0.0557 -0.0681
vn 0.9932 -0.0832 -0.0818
vn 0.9172 0.0714 -0.3919
vn 0.9081 0.0478 -0.4159
vn 0.6175 0.2424 -0.7483
vn -0.7822 0.5690 -0.2536
vn -0.8291 0.4563 0.3230
vn -0.7528 0.6249 -0.2067
vn -0.4406 0.5824 -0.6831
vn -0.4325 0.6301 -0.6449
vn 0.0943 0.4477 -0.8892
vn 0.0525 0.5140 -0.8562
vn 0.5988 0.2955 -0.7444
vn 0.6152 0.4425 -0.6525
vn 0.1416 0.6594 -0.7383
vn 0.2560 0.6899 -0.6771
vn -0.4878 0.1087 0.8662
vn -0.2612 -0.0435 0.9643
vn -0.7632 0.4452 0.4683
vn -0.6732 0.7240 -0.1502
vn -0.3427 0.7227 -0.6002
vn -0.1964 0.7695 -0.6078
vn 0.3430 0.6076 -0.7164
vn -0.0523 0.8087 -0.5859
vn -0.5565 0.8207 -0.1293
vn -0.6122 0.6224 0.4877
vn -0.6464 0.4831 0.5905
vn -0.1002 -0.1221 0.9874
vn 0.5640 0.5532 -0.6131
vn 0.9181 0.1502 -0.3667
vn 0.5465 0.5621 -0.6208
vn 0.3584 0.8841 0.2998
vn -0.5379 0.8409 0.0594
vn -0.5617 0.6605 0.4982
vn -0.2406 0.0543 0.9691
vn 0.5030 -0.7086 0.4949
vn 0.6030 -0.6446 0.4700
vn 0.5774 -0.5710 0.5835
vn 0.4508 -0.4836 0.7503
vn 0.8556 0.3349 -0.3947
vn 0.8394 0.4091 -0.3579
vn 0.5006 -0.7363 0.4553
vn -0.2366 0.0946 0.9670
vn 0.9880 0.1459 -0.0510
vn 0.9983 -0.0197 -0.0556
vn 0.9654 0.2421 -0.0969
vn 0.9813 -0.0925 0.1688
vn 0.9734 -0.1542 0.1692
vn 0.9735 -0.0117 0.2283
vn 0.9810 0.1250 0.1484
vn 0.5142 0.0587 0.8556
vn 0.5263 -0.0045 0.8503
vn 0.6964 -0.0541 0.7157
vn 0.6638 -0.1891 0.7236
vn 0.6162 -0.2336 0.7521
vn 0.9613 -0.1789 0.2094
vn -0.3198 -0.0607 0.9456
vn -0.3914 0.0043 0.9202
vn -0.4021 0.0749 0.9125
vn -0.5010 0.0514 0.8639
vn -0.6117 0.0126 0.7910
vn -0.0128 0.3676 0.9299
vn -0.0077 0.2402 0.9707
vn -0.9925 -0.0324 -0.1175
vn -0.9968 0.0543 0.0590
vn -0.9903 0.1087 0.0866
vn -0.9688 0.1819 0.1683
vn -0.9537 0.1807 0.2404
vn -0.4213 -0.8783 0.2260
vn -0.9680 -0.0873 -0.2351
vn -0.0908 -0.4301 0.8982
vn -0.6026 -0.2265 0.7652
vn -0.0401 -0.4892 0.8712
vn -0.6065 -0.2439 0.7567
vn -0.9198 -0.0436 0.3899
vn -0.6360 -0.4124 0.6522
vn -0.9449 -0.0906 0.3145
vn -0.5909 -0.5425 0.5971
vn -0.9029 -0.2719 0.3330
vn -0.5430 -0.5706 0.6161
vn -0.8720 -0.3743 0.3154
vn -0.9808 -0.1935 0.0233
vn -0.9650 0.0365 -0.2598
vn -0.9771 0.1145 -0.1794
vn -0.9668 0.1741 -0.1870
vn -0.0935 -0.6643 0.7416
vn 0.4502 -0.6604 0.6009
vn -0.8885 -0.0635 0.4544
vn -0.9940 0.0820 0.0721
vn -0.9544 0.2047 -0.2171
vn -0.9975 0.0622 0.0326
vn -0.9981 0.0560 0.0275
vn -0.9962 -0.0839 0.0232
vn -0.2415 -0.6905 0.6818
vn -0.3535 -0.6035 0.7148
vn 0.0544 -0.7964 0.6023
vn 0.2467 -0.7534 0.6095
vn 0.4019 -0.7293 0.5537
vn 0.7445 -0.6475 0.1624
vn 0.6946 -0.7018 0.1580
vn 0.6146 -0.7804 0.1153
vn 0.5775 -0.8150 -0.0475
vn 0.7792 -0.5889 0.2144
vn 0.4427 -0.5998 0.6665
usemtl Material
s 1
f 1/1/1 2/2/2 3/3/3
f 2/4/2 4/5/4 3/6/3
f 4/7/4 5/8/5 3/9/3
f 6/10/6 7/11/7 8/12/8
f 9/13/9 6/14/6 8/15/8
f 10/16/10 9/17/9 8/18/8
f 11/19/11 9/20/9 10/21/10
f 12/22/12 11/23/11 10/24/10
f 5/25/5 11/26/11 12/27/12
f 13/28/13 5/29/5 12/30/12
f 5/31/5 13/32/13 3/33/3
f 13/34/13 14/35/14 3/36/3
f 14/37/14 13/38/13 12/39/12
f 15/40/15 14/41/14 12/42/12
f 15/43/15 12/44/12 10/45/10
f 14/46/14 15/47/15 16/48/16
f 7/49/7 17/50/17 18/51/18
f 19/52/19 7/53/7 18/54/18
f 7/55/7 19/56/19 8/57/8
f 8/58/8 19/59/19 20/60/20
f 10/61/10 8/62/8 20/63/20
f 21/64/21 10/65/10 20/66/20
f 21/67/21 15/68/15 10/69/10
f 15/70/15 21/71/21 22/72/22
f 16/73/16 15/74/15 22/75/22
f 23/76/23 16/77/16 22/78/22
f 24/79/24 23/80/23 22/81/22
f 24/82/24 22/83/22 25/84/25
f 25/85/25 22/86/22 20/87/20
f 26/88/26 25/89/25 20/90/20
f 27/91/27 26/92/26 20/93/20
f 26/94/26 27/95/27 28/96/28
f 28/97/28 27/98/27 18/99/18
f 27/100/27 19/101/19 18/102/18
f 19/103/19 27/104/27 20/105/20
f 22/106/22 21/107/21 20/108/20
f 14/109/14 29/110/29 30/111/30
f 29/112/29 14/113/14 16/114/16
f 31/115/31 29/116/29 16/117/16
f 23/118/23 31/119/31 16/120/16
f 32/121/32 31/122/31 23/123/23
f 32/124/32 23/125/23 24/126/24
f 32/127/32 24/128/24 33/129/33
f 33/130/33 24/131/24 25/132/25
f 34/133/34 33/134/33 25/135/25
f 26/136/26 34/137/34 25/138/25
f 34/139/34 26/140/26 35/141/35
f 35/142/35 26/143/26 28/144/28
f 36/145/36 35/146/35 28/147/28
f 37/148/37 36/149/36 28/150/28
f 37/151/37 28/152/28 18/153/18
f 38/154/38 37/155/37 18/156/18
f 39/157/39 38/158/38 18/159/18
f 17/160/17 39/161/39 18/162/18
f 34/163/34 32/164/32 33/165/33
f 29/166/29 40/167/40 30/168/30
f 29/169/29 31/170/31 40/171/40
f 31/172/31 41/173/41 40/174/40
f 31/175/31 32/176/32 41/177/41
f 36/178/36 42/179/42 35/180/35
f 42/181/42 43/182/43 35/183/35
f 44/184/44 45/185/45 30/186/30
f 40/187/40 44/188/44 30/189/30
f 46/190/46 44/191/44 40/192/40
f 45/193/45 47/194/47 48/195/48
f 45/196/45 44/197/44 47/198/47
f 44/199/44 49/200/49 47/201/47
f 44/202/44 46/203/46 49/204/49
f 46/205/46 50/206/50 49/207/49
f 41/208/41 46/209/46 40/210/40
f 32/211/32 46/212/46 41/213/41
f 46/214/46 32/215/32 50/216/50
f 32/217/32 51/218/51 50/219/50
f 50/220/50 51/221/51 49/222/49
f 51/223/51 52/224/52 49/225/49
f 49/226/49 52/227/52 47/228/47
f 52/229/52 53/230/53 47/231/47
f 47/232/47 53/233/53 48/234/48
f 53/235/53 54/236/54 48/237/48
f 54/238/54 55/239/55 48/240/48
f 55/241/55 56/242/56 48/243/48
f 56/244/56 2/245/2 48/246/48
f 2/247/2 1/248/1 48/249/48
f 1/250/1 45/251/45 48/252/48
f 45/253/45 1/254/1 3/255/3
f 30/256/30 45/257/45 3/258/3
f 14/259/14 30/260/30 3/261/3
f 57/262/57 55/263/55 58/264/58
f 55/265/55 54/266/54 58/267/58
f 58/268/58 54/269/54 59/270/59
f 54/271/54 53/272/53 59/273/59
f 59/274/59 53/275/53 60/276/60
f 53/277/53 52/278/52 60/279/60
f 60/280/60 52/281/52 61/282/61
f 52/283/52 51/284/51 61/285/61
f 61/286/61 51/287/51 62/288/62
f 51/289/51 32/290/32 62/291/62
f 63/292/63 64/293/64 62/294/62
f 64/295/64 61/296/61 62/297/62
f 64/298/64 65/299/65 61/300/61
f 65/301/65 60/302/60 61/303/61
f 65/304/65 66/305/66 60/306/60
f 66/307/66 59/308/59 60/309/60
f 66/310/66 67/311/67 59/312/59
f 67/313/67 58/314/58 59/315/59
f 67/316/67 68/317/68 58/318/58
f 68/319/68 57/320/57 58/321/58
f 42/322/42 63/323/63 43/324/43
f 63/325/63 62/326/62 43/327/43
f 62/328/62 32/329/32 43/330/43
f 32/331/32 34/332/34 43/333/43
f 43/334/43 34/335/34 35/336/35
f 64/337/64 69/338/69 70/339/70
f 71/340/71 72/341/72 73/342/73
f 72/343/72 74/344/74 73/345/73
f 74/346/74 72/347/72 75/348/75
f 76/349/76 74/350/74 75/351/75
f 77/352/77 76/353/76 75/354/75
f 78/355/78 76/356/76 77/357/77
f 79/358/79 78/359/78 77/360/77
f 80/361/80 78/362/78 79/363/79
f 81/364/81 80/365/80 79/366/79
f 82/367/82 81/368/81 79/369/79
f 82/370/82 69/371/69 81/372/81
f 69/373/69 82/374/82 70/375/70
f 70/376/70 82/377/82 83/378/83
f 64/379/64 70/380/70 83/381/83
f 65/382/65 64/383/64 83/384/83
f 65/385/65 83/386/83 84/387/84
f 66/388/66 65/389/65 84/390/84
f 66/391/66 84/392/84 85/393/85
f 74/394/74 76/395/76 73/396/73
f 76/397/76 86/398/86 73/399/73
f 73/400/73 86/401/86 87/402/87
f 72/403/72 88/404/88 75/405/75
f 88/406/88 89/407/89 75/408/75
f 67/409/67 66/410/66 85/411/85
f 68/412/68 67/413/67 85/414/85
f 90/415/90 68/416/68 85/417/85
f 89/418/89 90/419/90 85/420/85
f 91/421/91 89/422/89 85/423/85
f 89/424/89 91/425/91 75/426/75
f 91/427/91 92/428/92 75/429/75
f 92/430/92 77/431/77 75/432/75
f 92/433/92 93/434/93 77/435/77
f 93/436/93 79/437/79 77/438/77
f 93/439/93 82/440/82 79/441/79
f 82/442/82 93/443/93 83/444/83
f 83/445/83 93/446/93 84/447/84
f 93/448/93 92/449/92 84/450/84
f 84/451/84 92/452/92 85/453/85
f 92/454/92 91/455/91 85/456/85
f 86/457/86 76/458/76 94/459/94
f 76/460/76 78/461/78 94/462/94
f 78/463/78 80/464/80 94/465/94
f 80/466/80 95/467/95 94/468/94
f 80/469/80 69/470/69 95/471/95
f 69/472/69 96/473/96 95/474/95
f 95/475/95 96/476/96 97/477/97
f 94/478/94 95/479/95 97/480/97
f 86/481/86 94/482/94 97/483/97
f 98/484/98 86/485/86 97/486/97
f 86/487/86 98/488/98 87/489/87
f 87/490/87 98/491/98 99/492/99
f 98/493/98 100/494/100 99/495/99
f 69/496/69 80/497/80 81/498/81
f 98/499/98 97/500/97 100/501/100
f 97/502/97 101/503/101 100/504/100
f 97/505/97 96/506/96 101/507/101
f 96/508/96 102/509/102 101/510/101
f 96/511/96 69/512/69 102/513/102
f 69/514/69 42/515/42 102/516/102
f 102/517/102 42/518/42 101/519/101
f 42/520/42 36/521/36 101/522/101
f 101/523/101 36/524/36 100/525/100
f 36/526/36 37/527/37 100/528/100
f 100/529/100 37/530/37 99/531/99
f 37/532/37 38/533/38 99/534/99
f 38/535/38 39/536/39 99/537/99
f 39/538/39 103/539/103 99/540/99
f 103/541/103 104/542/104 99/543/99
f 104/544/104 87/545/87 99/546/99
f 104/547/104 71/548/71 87/549/87
f 71/550/71 73/551/73 87/552/87
