# Blender v2.78 (sub 0) OBJ File: ''
# www.blender.org
mtllib rebelbelt_f.mtl
o female_01_reference
v -3.117605 5.024512 -3.275032
v -4.492764 4.405669 -2.629798
v -1.100663 5.452510 -3.657760
v -0.812906 3.860065 -7.058875
v -3.469902 4.684707 -5.655065
v -3.408834 3.382216 -6.727396
v -4.569245 2.897700 -2.894345
v -3.069451 2.258388 -6.226772
v -2.652443 -0.139684 -5.984881
v -0.028030 0.062346 -4.780245
v -0.025283 0.218078 -6.412187
v 2.537887 0.896010 -6.002109
v -0.531106 2.680606 -6.606649
v -1.063387 5.283103 -6.265713
v 1.127020 5.746829 -3.450654
v 2.570624 0.731532 -4.301283
v -4.119625 1.510642 -3.134143
v -2.493691 -0.239175 -4.367637
v 2.349180 5.830951 -3.274563
v 1.476760 5.718856 -5.649199
v 1.869613 4.423568 -6.630926
v 3.017189 4.565398 -2.990704
v 3.320565 3.082850 -3.310361
v 1.986842 3.248908 -6.206391
v 4.771227 4.202353 -2.849190
v 5.708951 3.958266 -0.599429
v 6.012508 3.873996 -0.740725
v 6.071905 2.635852 -0.985779
v 6.114704 3.743159 1.218395
v 4.287367 2.520308 3.402903
v 1.941860 2.479491 5.056630
v -1.941860 2.603435 5.056630
v -4.232495 2.803405 3.398010
v -2.014427 2.804427 5.333948
v 5.943969 2.326007 0.903260
v 5.917443 2.440406 -0.894776
v 6.205557 2.511172 1.088077
v 4.727268 2.730494 -2.861968
v 4.901049 2.948722 -3.077541
v 2.523876 2.838027 -3.916083
v -1.904522 3.945781 5.400105
v 1.930513 3.899631 5.397207
v 0.000000 2.780616 5.656624
v 2.014427 2.680484 5.333948
v 0.000000 4.011134 5.717701
v -5.917443 2.756480 -0.894776
v -4.901048 3.072665 -3.077541
v -5.971393 2.702174 0.902519
v -6.230376 2.881724 1.025436
v -5.708951 4.274341 -0.599429
v -4.537924 4.376376 -2.710777
v -2.410910 4.451632 -3.683758
v -4.771227 4.326297 -2.849190
v -2.523876 2.961970 -3.916083
v -6.071905 2.951926 -0.985779
v -6.114704 4.059234 1.218395
v -6.012508 4.190070 -0.740725
v -6.468020 -0.442021 0.885518
v -4.461430 0.965526 3.255301
v -4.726992 1.314998 -3.031757
v -6.184514 1.006331 -1.135003
v -6.232593 0.876258 0.715835
v -6.645869 -0.123914 -1.316843
v -4.897408 -0.079385 -3.413567
v -6.473031 0.853805 -1.138098
v -4.929064 1.200828 -3.325149
v -5.031374 0.182563 -3.544949
v -4.639884 -0.241746 3.271056
v -2.162838 -0.157117 4.935313
v -2.249959 -0.004731 5.138171
v 2.173773 0.212169 5.139128
v 0.000000 0.185069 5.635171
v 2.139726 1.219806 5.148986
v 0.000000 1.109832 5.675914
v 2.696438 0.305331 -4.360546
v 0.000000 0.274360 -4.812932
v 4.929064 1.696597 -3.325149
v 6.264535 1.566474 -1.138098
v 6.437374 0.611396 -1.316843
v 6.431724 0.529155 0.870273
v 4.455354 1.502368 3.268116
v 0.000000 1.274924 5.461177
v -2.075545 1.153754 4.962856
v -2.139726 0.980262 5.148986
v 6.212259 0.351680 -1.188732
v 5.031374 0.678332 -3.544949
v 2.741005 0.561370 -4.565670
v 5.992360 1.719001 -1.135003
v 6.024538 1.622897 0.724239
v 6.281925 1.470542 0.805534
v -6.421556 1.353496 -1.015882
v -6.088781 1.185748 1.583869
v -6.846550 -3.237752 1.470691
v -7.435726 1.519473 -0.913777
v -7.759974 1.043563 -0.381196
v -7.550433 0.940131 1.204660
v -8.301258 -2.373075 -0.366938
v -8.141667 -2.488839 1.117286
v -7.860722 -3.071774 1.572795
v -7.102951 1.351726 1.685972
v -8.137194 -2.877404 -0.894946
v -7.123026 -3.043386 -0.997052
v -2.696438 0.088431 -4.360546
v 0.015155 -0.021085 5.412006
v -6.401457 -0.383630 -1.188732
v 4.897408 0.416385 -3.413567
v 2.162855 0.059752 4.935311
v 6.250144 0.293288 0.909279
v 4.592478 0.248054 3.275206
v -2.592433 1.528384 -4.166039
v -4.670513 2.911178 -2.865033
v 0.000000 2.939349 -3.921995
v 0.000000 1.688293 -4.461173
v 2.592433 1.745280 -4.166039
v 4.726992 1.810767 -3.031757
v 0.000000 2.580943 5.535412
v 2.075545 1.393298 4.962856
v -1.357379 2.569072 5.607372
v -1.131617 4.159213 5.516397
v 0.037777 4.227839 5.863099
v 1.172438 4.074748 5.531862
v 1.106913 2.587783 5.467058
v -0.032908 2.633803 5.563591
v -0.038067 2.506721 5.788088
v -1.172728 2.688048 5.471427
v 0.032618 4.120769 5.628396
v 0.000000 4.453811 -3.814932
v 2.410910 4.327689 -3.683758
v 4.537924 4.252437 -2.710777
v 5.731800 3.792575 1.177695
v 4.151179 3.878947 3.535683
v 1.755101 4.019736 5.168761
v 0.000000 4.170226 5.616712
v -4.138331 4.068751 3.498346
v -1.755061 4.065696 5.171992
v -5.731800 4.108649 1.177695
v -1.281535 4.290191 5.682381
v 1.357089 4.174136 5.677323
v 0.031376 4.074870 5.949494
v -0.031666 2.644282 5.887146
v 1.281245 2.453017 5.602314
vt 0.7045 0.8512
vt 0.7289 0.8379
vt 0.7214 0.8581
vt 0.7329 0.8660
vt 0.6850 0.8490
vt 0.7079 0.8327
vt 0.7112 0.8192
vt 0.7327 0.8245
vt 0.7132 0.8091
vt 0.7356 0.8149
vt 0.7181 0.7882
vt 0.7657 0.8365
vt 0.7395 0.8350
vt 0.7653 0.8248
vt 0.7401 0.7949
vt 0.7440 0.7815
vt 0.7211 0.7749
vt 0.6960 0.7848
vt 0.6908 0.8043
vt 0.6886 0.8141
vt 0.6860 0.8288
vt 0.6744 0.8483
vt 0.6983 0.7706
vt 0.7639 0.8127
vt 0.7528 0.7945
vt 0.6780 0.8213
vt 0.6590 0.8129
vt 0.6604 0.8014
vt 0.6675 0.7909
vt 0.6844 0.7783
vt 0.2213 0.5519
vt 0.2225 0.5509
vt 0.2398 0.5552
vt 0.2070 0.5504
vt 0.2067 0.5495
vt 0.1854 0.5523
vt 0.2399 0.5559
vt 0.2598 0.5591
vt 0.2413 0.5450
vt 0.2246 0.5410
vt 0.2079 0.5396
vt 0.1866 0.5412
vt 0.1660 0.5423
vt 0.1654 0.5406
vt 0.1497 0.5431
vt 0.1497 0.5415
vt 0.1334 0.5433
vt 0.1340 0.5416
vt 0.1132 0.5433
vt 0.1343 0.5525
vt 0.1141 0.5535
vt 0.2094 0.5384
vt 0.2239 0.5396
vt 0.2410 0.5436
vt 0.2613 0.5471
vt 0.2804 0.5516
vt 0.2782 0.5636
vt 0.1355 0.5534
vt 0.1497 0.5531
vt 0.1497 0.5543
vt 0.1653 0.5521
vt 0.1639 0.5531
vt 0.0766 0.5420
vt 0.0594 0.5455
vt 0.0595 0.5447
vt 0.0759 0.5434
vt 0.0910 0.5412
vt 0.0920 0.5424
vt 0.0938 0.5518
vt 0.0934 0.5526
vt 0.0792 0.5542
vt 0.0781 0.5532
vt 0.0609 0.5563
vt 0.0610 0.5556
vt 0.0416 0.5594
vt 0.0399 0.5476
vt 0.0234 0.5633
vt 0.0211 0.5516
vt 0.1120 0.5284
vt 0.0904 0.5157
vt 0.1111 0.5187
vt 0.0892 0.5265
vt 0.0181 0.5416
vt 0.0154 0.5305
vt 0.0362 0.5249
vt 0.0379 0.5363
vt 0.0568 0.5308
vt 0.0576 0.5321
vt 0.0744 0.5263
vt 0.0744 0.5278
vt 0.0728 0.5184
vt 0.0738 0.5165
vt 0.0552 0.5226
vt 0.0552 0.5208
vt 0.1315 0.5206
vt 0.1322 0.5193
vt 0.1498 0.5205
vt 0.1497 0.5221
vt 0.1672 0.5211
vt 0.1673 0.5223
vt 0.1885 0.5228
vt 0.1670 0.5305
vt 0.1497 0.5296
vt 0.1324 0.5285
vt 0.2857 0.5302
vt 0.2640 0.5285
vt 0.2642 0.5267
vt 0.2628 0.5382
vt 0.2448 0.5267
vt 0.2434 0.5350
vt 0.2276 0.5244
vt 0.2260 0.5322
vt 0.2099 0.5235
vt 0.2103 0.5312
vt 0.1879 0.5330
vt 0.1665 0.5318
vt 0.1497 0.5309
vt 0.1329 0.5299
vt 0.2832 0.5415
vt 0.2095 0.5218
vt 0.2265 0.5225
vt 0.2448 0.5248
vt 0.2425 0.5362
vt 0.2259 0.5337
vt 0.2109 0.5327
vt 0.7092 0.9793
vt 0.6842 0.9939
vt 0.6844 0.9794
vt 0.7088 0.9930
vt 0.9003 0.9874
vt 0.8637 0.9964
vt 0.8637 0.9880
vt 0.9001 0.9959
vt 0.8995 0.9671
vt 0.8631 0.9580
vt 0.8992 0.9586
vt 0.8630 0.9666
vt 0.8673 0.9707
vt 0.8677 0.9836
vt 0.8952 0.9711
vt 0.8958 0.9832
vt 0.8548 0.9669
vt 0.8554 0.9883
vt 0.9087 0.9872
vt 0.9077 0.9669
vt 0.6588 0.9807
vt 0.6567 0.9793
vt 0.6678 0.9793
vt 0.6567 0.9937
vt 0.6788 0.9793
vt 0.6788 0.9937
vt 0.6769 0.9922
vt 0.6678 0.9937
vt 0.6678 0.9923
vt 0.6588 0.9923
vt 0.6678 0.9807
vt 0.6767 0.9807
vt 0.7352 0.9736
vt 0.7354 0.9949
vt 0.7158 0.9972
vt 0.7354 0.9971
vt 0.7551 0.9969
vt 0.7548 0.9713
vt 0.7352 0.9715
vt 0.7156 0.9716
vn -0.1850 0.9798 -0.0761
vn -0.6098 0.6750 -0.4152
vn -0.3390 0.9370 -0.0836
vn -0.8644 0.4471 -0.2300
vn -0.1049 0.9937 -0.0379
vn -0.1849 0.8028 -0.5669
vn -0.0247 0.0809 -0.9964
vn -0.5946 0.0103 -0.8039
vn 0.0522 -0.2137 -0.9755
vn -0.5866 -0.3305 -0.7394
vn 0.1332 -0.6731 -0.7274
vn -0.9467 -0.0728 -0.3136
vn -0.4346 -0.7033 -0.5625
vn -0.3980 -0.9171 -0.0212
vn 0.1862 -0.9780 -0.0942
vn 0.6561 -0.4722 -0.5886
vn 0.6547 -0.0441 -0.7545
vn 0.5795 0.2107 -0.7872
vn 0.3385 0.8520 -0.3992
vn 0.6316 0.7280 -0.2664
vn 0.7522 -0.6543 -0.0777
vn -0.9052 -0.3179 -0.2818
vn 0.8872 0.3030 -0.3479
vn 0.9256 0.1533 -0.3460
vn 0.2843 0.9577 0.0436
vn 0.7841 0.6017 -0.1516
vn 0.5185 0.6707 -0.5304
vn 0.1304 0.9900 0.0535
vn 0.7577 0.5886 0.2818
vn 0.7024 0.0671 0.7086
vn 0.1570 0.9834 -0.0911
vn 0.1701 0.1796 -0.9689
vn 0.6037 -0.2922 -0.7416
vn 0.8963 -0.3078 -0.3192
vn 0.8585 -0.4336 0.2737
vn 0.7152 -0.0574 0.6965
vn 0.3590 -0.4397 0.8233
vn 0.2246 -0.8082 0.5443
vn 0.0069 -0.2934 0.9560
vn 0.0214 -0.5367 0.8435
vn -0.4011 -0.4240 0.8119
vn -0.2876 -0.8097 0.5116
vn -0.7088 -0.0600 0.7028
vn -0.3598 0.4899 0.7940
vn -0.6986 0.0609 0.7129
vn 0.5244 -0.8450 0.1043
vn 0.6925 -0.6771 -0.2489
vn 0.3818 -0.7824 -0.4920
vn 0.1787 0.1255 -0.9759
vn 0.0197 0.0856 -0.9961
vn 0.0185 0.0858 -0.9961
vn -0.1646 0.9063 0.3892
vn -0.0158 0.2682 0.9632
vn -0.0356 0.5580 0.8291
vn 0.3793 0.4939 0.7824
vn 0.2055 0.9223 0.3272
vn -0.7116 -0.6742 -0.1974
vn -0.5911 -0.3652 -0.7192
vn -0.2745 -0.8854 -0.3751
vn -0.9049 -0.2971 -0.3046
vn -0.5354 -0.8363 0.1180
vn -0.8704 -0.4219 0.2537
vn -0.7474 0.5888 0.3077
vn -0.1175 0.9886 0.0944
vn -0.2532 0.9673 -0.0084
vn -0.7659 0.6144 -0.1896
vn -0.1441 0.9826 -0.1171
vn -0.5094 0.6572 -0.5555
vn -0.1923 0.1920 -0.9623
vn -0.1929 0.1149 -0.9745
vn -0.7063 0.1383 0.6942
vn -0.9253 0.1513 0.3478
vn -0.7196 0.0910 0.6884
vn -0.9128 0.2422 0.3287
vn -0.0243 0.2264 -0.9737
vn -0.0443 0.2228 -0.9738
vn -0.2508 0.1451 -0.9571
vn -0.2341 0.1885 -0.9538
vn -0.5225 0.6235 -0.5815
vn -0.2951 0.9405 -0.1681
vn -0.8224 0.5468 -0.1569
vn -0.4639 0.8797 -0.1038
vn -0.9148 -0.2650 -0.3048
vn -0.6480 -0.7213 -0.2444
vn -0.5920 -0.1634 -0.7892
vn -0.4790 -0.5768 -0.6616
vn -0.3783 -0.4200 0.8249
vn -0.1906 -0.8224 0.5360
vn 0.0470 -0.7350 0.6764
vn 0.0245 -0.3934 0.9190
vn 0.3057 -0.7675 0.5633
vn 0.3846 -0.4091 0.8274
vn 0.7184 0.0490 0.6939
vn 0.3714 0.3921 0.8416
vn -0.0125 0.4006 0.9162
vn -0.4082 0.4011 0.8200
vn 0.2595 -0.1538 -0.9534
vn 0.2432 -0.6294 -0.7380
vn 0.2123 0.3446 -0.9144
vn 0.6330 -0.1674 -0.7558
vn 0.5024 0.6299 -0.5923
vn 0.9249 -0.2512 -0.2855
vn 0.8067 0.5625 -0.1811
vn 0.9376 -0.2034 0.2818
vn 0.8025 0.5290 0.2759
vn 0.7118 0.1261 0.6910
vn 0.2508 0.7497 0.6123
vn -0.0374 0.7908 0.6109
vn -0.3226 0.7463 0.5822
vn 0.7805 -0.5526 0.2922
vn 0.6978 -0.6921 -0.1842
vn 0.5237 -0.5863 -0.6180
vn 0.2205 0.9507 -0.2181
vn 0.4775 0.8704 -0.1196
vn 0.4627 0.8710 0.1650
vn 0.5290 -0.6955 0.4863
vn 0.5932 0.5022 -0.6292
vn 0.7274 0.4422 0.5247
vn 0.4152 -0.6352 -0.6511
vn -0.4897 -0.5836 0.6477
vn -0.2762 0.6611 0.6976
vn -0.6171 -0.5186 -0.5918
vn -0.4165 0.7158 -0.5604
vn -0.9273 0.3665 -0.0762
vn -0.8740 0.3499 0.3371
vn -0.9940 -0.0467 -0.0986
vn -0.9480 -0.0658 0.3113
vn 0.1771 -0.3431 -0.9224
vn 0.7143 -0.6934 0.0942
vn -0.0349 -0.9639 0.2640
vn 0.7820 0.6034 0.1557
vn -0.7733 -0.6259 0.1011
vn -0.6949 0.6945 0.1862
vn -0.2330 0.4114 -0.8812
vn 0.0341 0.9335 0.3570
vn 0.0171 0.5693 -0.8219
vn 0.2196 0.4006 -0.8895
vn -0.0154 -0.4933 -0.8697
vn -0.2125 -0.3157 -0.9247
vn -0.0114 -0.3004 0.9537
vn 0.0110 0.2065 0.9784
usemtl players_sheet
s 1
f 3/1/1 5/2/2 1/3/3
f 1/3/3 5/2/2 2/4/4
f 15/5/5 14/6/6 3/1/1
f 3/1/1 14/6/6 5/2/2
f 4/7/7 5/2/2 14/6/6
f 4/7/7 6/8/8 5/2/2
f 6/8/8 4/7/7 13/9/9
f 6/8/8 13/9/9 8/10/10
f 11/11/11 8/10/10 13/9/9
f 6/8/8 2/12/4 5/13/2
f 6/8/8 7/14/12 2/12/4
f 6/8/8 8/10/10 7/14/12
f 7/14/12 8/10/10 9/15/13
f 11/11/11 9/15/13 8/10/10
f 18/16/14 9/15/13 11/11/11
f 18/16/14 11/11/11 10/17/15
f 10/17/15 11/11/11 12/18/16
f 12/18/16 11/11/11 13/9/9
f 12/18/16 13/9/9 24/19/17
f 4/7/7 24/19/17 13/9/9
f 4/7/7 21/20/18 24/19/17
f 14/6/6 21/20/18 4/7/7
f 14/6/6 20/21/19 21/20/18
f 15/5/5 20/21/19 14/6/6
f 19/22/20 20/21/19 15/5/5
f 10/17/15 12/18/16 16/23/21
f 7/14/12 9/15/13 17/24/22
f 17/24/22 9/15/13 18/25/14
f 20/26/19 19/27/20 22/28/23
f 20/26/19 22/28/23 21/20/18
f 21/20/18 22/28/23 24/19/17
f 23/29/24 24/19/17 22/28/23
f 23/29/24 12/18/16 24/19/17
f 16/30/21 12/18/16 23/29/24
f 26/31/25 27/32/26 25/33/27
f 130/34/28 27/32/26 26/31/25
f 130/34/28 29/35/29 27/32/26
f 131/36/30 29/35/29 130/34/28
f 26/31/25 25/33/27 129/37/31
f 129/37/31 25/33/27 128/38/32
f 39/39/33 128/38/32 25/33/27
f 27/32/26 39/39/33 25/33/27
f 27/32/26 28/40/34 39/39/33
f 28/40/34 27/32/26 29/35/29
f 28/40/34 29/35/29 37/41/35
f 37/41/35 29/35/29 131/36/30
f 37/41/35 131/36/30 30/42/36
f 44/43/37 30/42/36 131/36/30
f 30/42/36 44/43/37 31/44/38
f 31/44/38 44/43/37 43/45/39
f 31/44/38 43/45/39 116/46/40
f 116/46/40 43/45/39 34/47/41
f 116/46/40 34/47/41 32/48/42
f 32/48/42 34/47/41 33/49/43
f 41/50/44 33/49/43 34/47/41
f 41/50/44 134/51/45 33/49/43
f 35/52/46 37/41/35 30/42/36
f 36/53/47 37/41/35 35/52/46
f 36/53/47 28/40/34 37/41/35
f 38/54/48 28/40/34 36/53/47
f 38/54/48 39/39/33 28/40/34
f 40/55/49 39/39/33 38/54/48
f 39/39/33 40/55/49 128/38/32
f 128/38/32 40/55/49 112/56/50
f 128/38/32 112/56/50 127/57/51
f 134/51/45 41/50/44 135/58/52
f 135/58/52 41/50/44 45/59/53
f 135/58/52 45/59/53 133/60/54
f 133/60/54 45/59/53 42/61/55
f 133/60/54 42/61/55 132/62/56
f 132/62/56 42/61/55 131/36/30
f 44/43/37 131/36/30 42/61/55
f 43/45/39 44/43/37 42/61/55
f 43/45/39 42/61/55 45/59/53
f 45/59/53 34/47/41 43/45/39
f 45/59/53 41/50/44 34/47/41
f 46/63/57 47/64/58 111/65/59
f 46/63/57 55/66/60 47/64/58
f 48/67/61 55/66/60 46/63/57
f 48/67/61 49/68/62 55/66/60
f 33/49/43 49/68/62 48/67/61
f 33/49/43 56/69/63 49/68/62
f 33/49/43 134/51/45 56/69/63
f 136/70/64 56/69/63 134/51/45
f 50/71/65 56/69/63 136/70/64
f 50/71/65 57/72/66 56/69/63
f 51/73/67 57/72/66 50/71/65
f 51/73/67 53/74/68 57/72/66
f 52/75/69 53/74/68 51/73/67
f 53/74/68 52/75/69 54/76/70
f 127/77/51 54/76/70 52/75/69
f 127/77/51 112/78/50 54/76/70
f 111/65/59 47/64/58 54/76/70
f 53/74/68 54/76/70 47/64/58
f 53/74/68 47/64/58 55/66/60
f 53/74/68 55/66/60 57/72/66
f 49/68/62 57/72/66 55/66/60
f 49/68/62 56/69/63 57/72/66
f 59/79/71 58/80/72 68/81/73
f 59/79/71 62/82/74 58/80/72
f 113/83/75 76/84/76 103/85/77
f 113/83/75 103/85/77 110/86/78
f 66/87/79 110/86/78 103/85/77
f 110/86/78 66/87/79 60/88/80
f 60/88/80 66/87/79 65/89/81
f 60/88/80 65/89/81 61/90/82
f 61/90/82 65/89/81 62/82/74
f 62/82/74 65/89/81 63/91/83
f 62/82/74 63/91/83 58/80/72
f 58/80/72 63/91/83 105/92/84
f 105/92/84 63/91/83 67/93/85
f 105/92/84 67/93/85 64/94/86
f 64/94/86 67/93/85 103/85/77
f 66/87/79 103/85/77 67/93/85
f 65/89/81 66/87/79 67/93/85
f 65/89/81 67/93/85 63/91/83
f 70/95/87 59/79/71 68/81/73
f 69/96/88 70/95/87 68/81/73
f 104/97/89 70/95/87 69/96/88
f 104/97/89 72/98/90 70/95/87
f 107/99/91 72/98/90 104/97/89
f 107/99/91 71/100/92 72/98/90
f 109/101/93 71/100/92 107/99/91
f 109/101/93 73/102/94 71/100/92
f 72/98/90 71/100/92 73/102/94
f 72/98/90 73/102/94 74/103/95
f 74/103/95 70/95/87 72/98/90
f 74/103/95 84/104/96 70/95/87
f 76/105/76 87/106/97 75/107/98
f 114/108/99 87/106/97 76/105/76
f 86/109/100 87/106/97 114/108/99
f 86/109/100 114/108/99 77/110/101
f 79/111/102 86/109/100 77/110/101
f 79/111/102 77/110/101 78/112/103
f 80/113/104 79/111/102 78/112/103
f 80/113/104 78/112/103 90/114/105
f 109/101/93 80/113/104 90/114/105
f 109/101/93 90/114/105 81/115/106
f 109/101/93 81/115/106 73/102/94
f 117/116/107 73/102/94 81/115/106
f 82/117/108 73/102/94 117/116/107
f 82/117/108 74/103/95 73/102/94
f 83/118/109 74/103/95 82/117/108
f 83/118/109 84/104/96 74/103/95
f 59/79/71 84/104/96 83/118/109
f 70/95/87 84/104/96 59/79/71
f 114/108/99 76/105/76 113/119/75
f 108/120/110 80/113/104 109/101/93
f 85/121/111 80/113/104 108/120/110
f 85/121/111 79/111/102 80/113/104
f 106/122/112 79/111/102 85/121/111
f 106/122/112 86/109/100 79/111/102
f 75/107/98 86/109/100 106/122/112
f 75/107/98 87/106/97 86/109/100
f 115/123/113 77/110/101 114/108/99
f 88/124/114 77/110/101 115/123/113
f 88/124/114 78/112/103 77/110/101
f 89/125/115 78/112/103 88/124/114
f 89/125/115 90/114/105 78/112/103
f 81/115/106 90/114/105 89/125/115
f 93/126/116 91/127/117 92/128/118
f 93/126/116 102/129/119 91/127/117
f 99/130/120 92/131/118 100/132/121
f 99/130/120 93/133/116 92/131/118
f 101/134/122 91/135/117 102/136/119
f 101/134/122 94/137/123 91/135/117
f 95/138/124 94/137/123 101/134/122
f 96/139/125 94/137/123 95/138/124
f 97/140/126 96/139/125 95/138/124
f 97/140/126 98/141/127 96/139/125
f 97/140/126 99/130/120 98/141/127
f 96/139/125 98/141/127 99/130/120
f 96/139/125 99/130/120 100/132/121
f 96/139/125 100/132/121 94/137/123
f 100/132/121 91/142/117 94/137/123
f 100/132/121 92/143/118 91/142/117
f 95/138/124 101/134/122 97/140/126
f 97/140/126 101/134/122 99/130/120
f 93/144/116 99/130/120 101/134/122
f 93/144/116 101/134/122 102/145/119
f 122/146/128 141/147/129 124/148/130
f 122/146/128 138/149/131 141/147/129
f 118/150/132 137/151/133 119/152/134
f 120/153/135 119/152/134 137/151/133
f 120/153/135 126/154/136 119/152/134
f 138/149/131 126/154/136 120/153/135
f 138/149/131 121/155/137 126/154/136
f 122/146/128 121/155/137 138/149/131
f 121/155/137 122/146/128 123/156/138
f 122/146/128 124/148/130 123/156/138
f 123/156/138 124/148/130 118/150/132
f 123/156/138 118/150/132 125/157/139
f 118/150/132 119/152/134 125/157/139
f 126/154/136 125/157/139 119/152/134
f 126/154/136 123/156/138 125/157/139
f 121/155/137 123/156/138 126/154/136
f 140/158/140 139/159/141 137/160/133
f 137/160/133 139/159/141 120/161/135
f 120/161/135 139/159/141 138/162/131
f 141/163/129 138/162/131 139/159/141
f 141/163/129 139/159/141 140/158/140
f 141/163/129 140/158/140 124/164/130
f 124/164/130 140/158/140 118/165/132
f 140/158/140 137/160/133 118/165/132
