# Blender v2.83.4 OBJ File: ''
# www.blender.org
mtllib cape.mtl
o cube
v 0.312500 0.500000 0.031250
v 0.312500 -0.500000 0.031250
v 0.312500 0.500000 -0.031250
v 0.312500 -0.500000 -0.031250
v -0.312500 0.500000 -0.031250
v -0.312500 -0.500000 -0.031250
v -0.312500 0.500000 0.031250
v -0.312500 -0.500000 0.031250
vt 0.171875 0.968750
vt 0.171875 0.468750
vt 0.187500 0.968750
vt 0.187500 0.468750
vt 0.000000 0.968750
vt 0.000000 0.468750
vt 0.015625 0.968750
vt 0.015625 0.468750
vt 0.015625 1.000000
vt 0.171875 1.000000
vt 0.171875 1.000000
vt 0.171875 0.968750
vt 0.328125 1.000000
vt 0.328125 0.968750
vt 0.187500 0.968750
vt 0.187500 0.468750
vt 0.343750 0.968750
vt 0.343750 0.468750
vt 0.015625 0.968750
vt 0.015625 0.468750
vt 0.171875 0.968750
vt 0.171875 0.468750
vn 1.0000 0.0000 0.0000
vn -1.0000 0.0000 0.0000
vn 0.0000 1.0000 0.0000
vn 0.0000 -1.0000 0.0000
vn 0.0000 -0.0000 1.0000
vn 0.0000 0.0000 -1.0000
usemtl m_0
s 1
f 1/1/1 2/2/1 3/3/1
f 2/2/1 4/4/1 3/3/1
f 5/5/2 6/6/2 7/7/2
f 6/6/2 8/8/2 7/7/2
f 5/9/3 7/7/3 3/10/3
f 7/7/3 1/1/3 3/10/3
f 8/11/4 6/12/4 2/13/4
f 6/12/4 4/14/4 2/13/4
f 7/15/5 8/16/5 1/17/5
f 8/16/5 2/18/5 1/17/5
f 3/19/6 4/20/6 5/21/6
f 4/20/6 6/22/6 5/21/6
