# Blender v2.83.4 OBJ File: ''
# www.blender.org
mtllib mc_left_arm_slim_layer.mtl
o Left_Arm_Layer
v 0.109375 0.390625 0.140625
v 0.109375 -0.390625 0.140625
v 0.109375 0.390625 -0.140625
v 0.109375 -0.390625 -0.140625
v -0.109375 0.390625 -0.140625
v -0.109375 -0.390625 -0.140625
v -0.109375 0.390625 0.140625
v -0.109375 -0.390625 0.140625
vt 0.750244 0.187256
vt 0.750244 0.000244
vt 0.812256 0.187256
vt 0.812256 0.000244
vt 0.859619 0.187256
vt 0.859619 0.000244
vt 0.921631 0.187256
vt 0.921631 0.000244
vt 0.859131 0.187744
vt 0.859131 0.249756
vt 0.812744 0.187744
vt 0.812744 0.249756
vt 0.906006 0.249756
vt 0.906006 0.187744
vt 0.859619 0.249756
vt 0.859619 0.187744
vt 0.922119 0.187256
vt 0.922119 0.000244
vt 0.968506 0.187256
vt 0.968506 0.000244
vt 0.812744 0.187256
vt 0.812744 0.000244
vt 0.859131 0.187256
vt 0.859131 0.000244
vn 1.0000 0.0000 0.0000
vn -1.0000 0.0000 0.0000
vn 0.0000 1.0000 0.0000
vn 0.0000 -1.0000 -0.0000
vn 0.0000 -0.0000 1.0000
vn 0.0000 0.0000 -1.0000
usemtl m_0
s 1
f 1/1/1 2/2/1 3/3/1
f 2/2/1 4/4/1 3/3/1
f 5/5/2 6/6/2 7/7/2
f 6/6/2 8/8/2 7/7/2
f 5/9/3 7/10/3 3/11/3
f 7/10/3 1/12/3 3/11/3
f 8/13/4 6/14/4 2/15/4
f 6/14/4 4/16/4 2/15/4
f 7/17/5 8/18/5 1/19/5
f 8/18/5 2/20/5 1/19/5
f 3/21/6 4/22/6 5/23/6
f 4/22/6 6/24/6 5/23/6
