# Blender v2.83.4 OBJ File: ''
# www.blender.org
mtllib mc_right_leg_layer.mtl
o Right_Leg_Layer
v 0.140625 0.390625 0.140625
v 0.140625 -0.390625 0.140625
v 0.140625 0.390625 -0.140625
v 0.140625 -0.390625 -0.140625
v -0.140625 0.390625 -0.140625
v -0.140625 -0.390625 -0.140625
v -0.140625 0.390625 0.140625
v -0.140625 -0.390625 0.140625
vt 0.000244 0.437256
vt 0.000244 0.250244
vt 0.062256 0.437256
vt 0.062256 0.250244
vt 0.125244 0.437256
vt 0.125244 0.250244
vt 0.187256 0.437256
vt 0.187256 0.250244
vt 0.124756 0.437744
vt 0.124756 0.499756
vt 0.062744 0.437744
vt 0.062744 0.499756
vt 0.187256 0.499756
vt 0.187256 0.437744
vt 0.125244 0.499756
vt 0.125244 0.437744
vt 0.187744 0.437256
vt 0.187744 0.250244
vt 0.249756 0.437256
vt 0.249756 0.250244
vt 0.062744 0.437256
vt 0.062744 0.250244
vt 0.124756 0.437256
vt 0.124756 0.250244
vn 1.0000 0.0000 0.0000
vn -1.0000 0.0000 0.0000
vn 0.0000 1.0000 0.0000
vn 0.0000 -1.0000 -0.0000
vn 0.0000 -0.0000 1.0000
vn 0.0000 0.0000 -1.0000
usemtl m_0.011
s 1
f 1/1/1 2/2/1 3/3/1
f 2/2/1 4/4/1 3/3/1
f 5/5/2 6/6/2 7/7/2
f 6/6/2 8/8/2 7/7/2
f 5/9/3 7/10/3 3/11/3
f 7/10/3 1/12/3 3/11/3
f 8/13/4 6/14/4 2/15/4
f 6/14/4 4/16/4 2/15/4
f 7/17/5 8/18/5 1/19/5
f 8/18/5 2/20/5 1/19/5
f 3/21/6 4/22/6 5/23/6
f 4/22/6 6/24/6 5/23/6
